<?xml version="1.0" encoding="UTF-8"?>
<svg id="Calque_2" data-name="Calque 2" xmlns="http://www.w3.org/2000/svg" viewBox="0 0 40.93 39.9">
  <g id="Calque_2-2" data-name="Calque 2">
    <g id="CV_VF" data-name="CV VF">
      <g>
        <path d="M34.28,0c3.45.05,6.59,3.19,6.65,6.65v26.6c-.06,3.46-3.2,6.6-6.65,6.65H6.65c-3.45-.06-6.6-3.19-6.65-6.65V6.65C.04,3.23,3.22.01,6.65,0h27.63Z" style="fill: #a63be8;"/>
        <path d="M18.92,10.19l6.28,17.84c-.09.09-.19.09-.31.1-1.09.1-2.32-.08-3.43,0-.06,0-.1-.02-.15-.05-.28-.16-1.24-3.69-1.54-4.2h-6.33l-1.38,4.15c-.09.09-.19.09-.31.1-.76.07-2.27.07-3.02,0-.21-.02-.39-.06-.31-.31l5.57-16.02c.03-.16.1-.32.13-.48.04-.25.03-.99.1-1.11.05-.08.2-.08.28-.09,1.08-.09,3.07-.09,4.15,0,.08,0,.2,0,.27.07Z" style="fill: #f9e7fe;"/>
        <path d="M27.2,14.58l3.6.02.09.11-.02,13.37-.11.09h-3.6l-.09-.18v-13.09c-.02-.11.01-.28.12-.32h0Z" style="fill: #f9e7fe;"/>
        <path d="M28.74,8.86c3.05-.37,3.18,4.12.45,4.28s-3.12-3.96-.45-4.28Z" style="fill: #f9e7fe;"/>
        <polygon points="18.78 20.41 14.43 20.41 16.55 13.3 18.78 20.41" style="fill: #a63be8;"/>
      </g>
    </g>
  </g>
</svg>