<?xml version="1.0" encoding="UTF-8"?>
<svg id="Calque_2" data-name="Calque 2" xmlns="http://www.w3.org/2000/svg" viewBox="0 0 42.47 57.91">
  <g id="Calque_2-2" data-name="Calque 2">
    <g id="CV_VF" data-name="CV VF">
      <g id="g3013">
        <polygon id="polygon2989" points="42.47 11.38 38.6 53.25 21.21 57.91 3.86 53.26 0 11.38 42.47 11.38" style="fill: #a63be8;"/>
        <polygon id="polygon2991" points="35.29 50.59 38.59 14.8 21.23 14.8 21.23 54.35 35.29 50.59" style="fill: #cb6be6;"/>
        <polygon id="polygon2993" points="8.86 30.34 9.34 35.47 21.23 35.47 21.23 30.34 8.86 30.34" style="fill: #f9e7fe;"/>
        <polygon id="polygon2995" points="21.23 19.94 21.22 19.94 7.9 19.94 8.38 25.08 21.23 25.08 21.23 19.94" style="fill: #f9e7fe;"/>
        <polygon id="polygon2997" points="21.23 49.02 21.23 43.68 21.21 43.68 15.29 42.14 14.91 38.04 12.03 38.04 9.57 38.04 10.32 46.11 21.21 49.03 21.23 49.02" style="fill: #f9e7fe;"/>
        <path id="path2999" d="M9.99,0h6.44v2.6h-3.75v2.6h3.75v2.6h-6.44V0Z" style="fill: #4605fa;"/>
        <path id="path3001" d="M17.72,0h6.44v2.26h-3.75v.45h3.75v5.2h-6.44v-2.38h3.75v-.45h-3.75V0Z" style="fill: #4605fa;"/>
        <path id="path3003" d="M25.45,0h6.44v2.26h-3.75v.45h3.75v5.2h-6.44v-2.38h3.75v-.45h-3.75V0Z" style="fill: #4605fa;"/>
        <polygon id="polygon3005" points="27.76 35.47 27.15 42.13 21.22 43.68 21.22 49.02 32.12 46.11 32.2 45.24 33.44 31.72 33.57 30.34 34.53 19.94 21.22 19.94 21.22 25.08 28.71 25.08 28.22 30.34 21.22 30.34 21.22 35.47 27.76 35.47" style="fill: #fff;"/>
      </g>
    </g>
  </g>
</svg>