<?xml version="1.0" encoding="UTF-8"?>
<svg id="Calque_2" data-name="Calque 2" xmlns="http://www.w3.org/2000/svg" viewBox="0 0 40.92 40.97">
  <g id="Calque_2-2" data-name="Calque 2">
    <g id="CV_VF" data-name="CV VF">
      <path d="M.02,20.78c-.03-.25.02-.53,0-.79.16-.57.39-1.04.79-1.48L12.89,6.42l.16-.09,4.54,4.53c.11.24-.13.68-.16.96-.16,1.44.71,2.68,1.96,3.29v11.09c-.04.21-.41.27-.59.4-2.19,1.56-1.65,4.99.93,5.63,3.52.87,5.5-3.65,2.44-5.73-.07-.05-.22-.06-.22-.07v-11.03l.69.52c1.12,1.15,2.21,2.34,3.41,3.42.17.24-.06.59-.09.89-.25,2.39,1.96,4.27,4.24,3.39,3.29-1.27,2.33-6.32-1.52-6.05-.22.02-.5.19-.69.1l-4.41-4.4c-.12-.19.05-.43.07-.66.14-2.01-1.21-3.72-3.32-3.58-.26.02-.68.19-.88.1-1.44-1.62-3.11-3.05-4.54-4.66l.06-.13,3.65-3.64c1.63-1.24,2.85-.69,4.17.57,6.04,5.81,11.77,11.98,17.73,17.87.68,1.14.46,2.41-.45,3.34-6.09,6.01-12.04,12.18-18.21,18.11-.86.51-1.86.51-2.72,0C12.82,34.45,6.58,28.18.41,21.88c-.17-.27-.37-.76-.41-1.07l.02-.03Z" style="fill: #a63be8;"/>
    </g>
  </g>
</svg>