<?xml version="1.0" encoding="UTF-8"?>
<svg id="Calque_2" data-name="Calque 2" xmlns="http://www.w3.org/2000/svg" viewBox="0 0 41.03 57.91">
  <g id="Calque_2-2" data-name="Calque 2">
    <g id="CV_VF" data-name="CV VF">
      <g>
        <path d="M3.82,0h2.6v2.58h2.4V0h2.6v7.8h-2.6v-2.6h-2.38v2.6h-2.62M14.86,2.6h-2.3V0h7.2v2.6h-2.31v5.2h-2.6M20.91,0h2.73l1.67,2.75,1.67-2.75h2.73v7.8h-2.6v-3.87l-1.82,2.8-1.82-2.8v3.87h-2.56M31,0h2.6v5.23h3.69v2.58h-6.29" style="fill: #4605fa;"/>
        <path d="M3.73,53.27L0,11.38h41.03l-3.73,41.87-16.82,4.66" style="fill: #a63be8;"/>
        <path d="M20.51,54.35V14.82h16.77l-3.2,35.74" style="fill: #cb6be6;"/>
        <path d="M7.62,19.94h12.89v5.13h-7.26l.48,5.26h6.79v5.12h-11.49M9.25,38.04h5.16l.36,4.11,5.75,1.54v5.36l-10.54-2.94" style="fill: #f9e7fe;"/>
        <path d="M33.36,19.94h-12.87v5.13h12.4M32.42,30.33h-11.93v5.13h6.33l-.6,6.67-5.73,1.54v5.34l10.52-2.92" style="fill: #fff;"/>
      </g>
    </g>
  </g>
</svg>