<?xml version="1.0" encoding="UTF-8"?>
<svg id="Calque_2" data-name="Calque 2" xmlns="http://www.w3.org/2000/svg" viewBox="0 0 40.93 39.9">
  <g id="Calque_2-2" data-name="Calque 2">
    <g id="CV_VF" data-name="CV VF">
      <g>
        <path d="M34.28,0c3.45.05,6.59,3.19,6.65,6.65v26.6c-.06,3.46-3.2,6.6-6.65,6.65H6.65c-3.45-.06-6.6-3.2-6.65-6.65V6.65C.04,3.23,3.22.01,6.65,0h27.63Z" style="fill: #a63be8;"/>
        <path d="M26.4,14.32v-5.5s.07-.08.08-.08h3.63l.15,18.57c-.08.17-1.48.59-1.74.66-3.13.84-7.18.87-9.46-1.79-1.81-2.11-1.96-5.73-.67-8.14,1.56-2.89,4.84-4.08,8.01-3.73h0Z" style="fill: #f9e7fe;"/>
        <path d="M11.19,10.24l3.6.02.09.17v17.49c.02.18-.05.33-.23.37h-3.32c-.15.02-.23-.1-.27-.23V10.57c0-.11,0-.28.13-.32h0Z" style="fill: #f9e7fe;"/>
        <path d="M26.4,17.54v7.52c-.92.18-2.05.18-2.93-.17-1.85-.72-2.34-3.07-1.89-4.83.52-2.01,2.9-2.98,4.82-2.53h0Z" style="fill: #a63be8;"/>
      </g>
    </g>
  </g>
</svg>