<?xml version="1.0" encoding="UTF-8"?>
<svg id="Calque_2" data-name="Calque 2" xmlns="http://www.w3.org/2000/svg" viewBox="0 0 40.93 57.92">
  <g id="Calque_2-2" data-name="Calque 2">
    <g id="CV_VF" data-name="CV VF">
      <g>
        <path d="M40.93,11.34l-3.66,41.67c-.15.33-2.03.82-2.47.95-4.77,1.44-9.62,2.61-14.41,3.96-5.59-1.49-11.15-3.08-16.71-4.64L0,11.35h40.93Z" style="fill: #a63be8;"/>
        <path d="M27.84,0v1.96s-.11.1-.16.1l-3.19.1,3.48,3.8v1.77h-7.35v-2.13h3.32s.1-.06.07-.13c0-.02-.26-.3-.31-.36-.99-1.12-2.07-2.21-3.07-3.34V0h7.22-.01Z" style="fill: #4605fa;"/>
        <polygon points="19.4 0 19.4 7.73 13.02 7.73 13.02 5.09 16.76 5.09 16.76 0 19.4 0" style="fill: #4605fa;"/>
        <path d="M20.5,16.56v-1.93h16.69c-.04,1.99-.22,3.98-.39,5.96-.04.49-.15.99-.19,1.48-.82,9.5-1.62,18.99-2.64,28.46l-13.41,3.78c-.11-1.68-.05-3.37-.06-5.06l-.26-.22.07-.13c.25.04.45.05.7-.07l.15-.15c3.21-.77,6.46-1.68,9.75-2.71.44-4.68.86-9.44,1.26-14.17l.18-1.29s-.57-.11-.67-.11c-3.61-.1-7.21-.1-10.82,0-.19-.02-.38-.06-.55-.13l-.46.09c-1.69.09-3.35.09-4.97,0v-.16l.06-.13c1.83.02,3.64,0,5.43-.04v-7.74l.13-.08c.08-.03.16-.06.24-.08s.16-.04.24-.04c1.9,0,3.82,0,5.7.3l.08.14.52,5.01c.19.01.29.08.29.22l.06-.13h4.79l.08.13-.13-.03-.95-10.98c-3.59.07-7.16.03-10.7-.11l-.2-.09h-.02Z" style="fill: #cb6be6;"/>
        <path d="M20.5,16.56c.81,0,1.62.06,2.41.07,2.87.02,5.74-.02,8.61,0l.97,11.15h-4.93c-.06,0-.26-.1-.36-.09l-.05-.08-.53-5.1c-2.02-.26-4.07-.25-6.11-.27-.13.07-.27.11-.42.12-1.49-.11-2.94-.06-4.33.13l-.72,7.66-.14.07c.07.11.24.06.35.07,1.69.02,3.38,0,5.06,0l.13.04.06,4.97-.13.08.04-.13h6.32l.08.13c.04.14.08.28.07.43-.14,1.85-.29,3.74-.52,5.54,0,.27-.1.43-.26.47l-.12-.06.57-6.15c-2.06.04-4.12.06-6.18-.11h-11.22v-.74c.6-5.33.82-10.71,1.42-16.04.03-.26.23-1.89.29-1.97.16-.2,1.37-.11,1.68-.13,2.64-.11,5.31-.07,7.96-.07h0Z" style="fill: #f9e7fe;"/>
        <path d="M20.24,49.02c-.86-.08-2.7-.72-3.64-.97-2.21-.6-4.4-1.29-6.61-1.9-.13-.11-.47-2.88-.52-3.29-.18-1.61-.28-3.25-.32-4.86h5.22l.4,4.04c.62.18,1.25.31,1.87.49.96.27,2.79.93,3.73.95l.12-.13c1.56-.33,3.12-.71,4.7-1.13l.21.04c-.18.21-.42.34-.73.4-1.41.37-2.81.76-4.18,1.18-.05,1.47-.06,2.95-.02,4.45-.03.42.11.57.41.43l.13.11c-.2.13-.54.21-.77.19h0Z" style="fill: #f9e7fe;"/>
        <path d="M20.37,35.5h6.32l-.58,6.31c.35.3-.5.64-.71.45-1.34.31-2.66.77-4.01,1.05-.34.07-.67.18-1.02.17.26-2.57.07-5.18.13-7.77l-.13-.22h0Z" style="fill: #cb6be6;"/>
        <path d="M20.3,30.28c3.66,0,7.77-.23,11.38,0,.24.01.56.07.77.13.09.12-.14,1.2-.16,1.45-.34,3.3-.51,6.62-.84,9.92-.14,1.43-.36,2.85-.46,4.28-2.33.7-4.66,1.42-7,2.05-.9.24-2.09.63-2.98.73-.39.04-.57.21-.64-.3-.15-1.05-.02-2.8-.02-3.92,0-.19-.09-.69.01-.84.09-.13.35-.17.5-.21,1.51-.49,3.05-.72,4.53-1.31.14-.06.61-.18.63-.21.01,0,.05-.18.08-.25.16-.39.21-1.01.26-1.45.19-1.66.2-3.34.45-4.99h-6.45l-.06-5.09h0Z" style="fill: #fff;"/>
        <path d="M20.5,22.23v7.99h-5.61l.74-7.86s.88-.12,1.04-.12c1.28-.06,2.58-.01,3.83,0h0Z" style="fill: #a63be8;"/>
        <path d="M32.42,27.64h-5.06l-.09-.11c-.17-1.7-.37-3.4-.46-5.11l-6.32-.39v-5.28h10.22l.65.12,1.06,10.76h0Z" style="fill: #fff;"/>
      </g>
    </g>
  </g>
</svg>