<?xml version="1.0" encoding="UTF-8"?>
<svg id="Calque_2" data-name="Calque 2" xmlns="http://www.w3.org/2000/svg" viewBox="0 0 59.35 30.97">
  <g id="Calque_2-2" data-name="Calque 2">
    <g id="CV_VF" data-name="CV VF">
      <g>
        <path d="M30.82,0c3.99,0,8.06.53,11.96,1.53,4.34,1.11,8.76,2.9,12.21,5.79,2.28,1.92,4.31,4.7,4.36,7.69v.89c-.1,3.84-3.02,6.89-6.06,8.95-3.99,2.71-8.85,4.31-13.62,5.2-6.03,1.12-12.41,1.2-18.47.26-4.91-.77-9.89-2.24-14.1-4.8C3.63,23.4.12,20.12,0,15.9c0-.3-.02-.6,0-.89.02-2.69,1.64-5.1,3.52-6.92,3.42-3.32,8.37-5.36,12.97-6.54C20.42.54,24.5.02,28.53,0h2.29Z" style="fill: #a63be8;"/>
        <path d="M8.35,24.61l3.24-16.46h7.63c3.02.19,4.88,1.79,4.78,4.93-.13,4.07-3.06,7.23-7.18,7.25h-3.79l-.82,4.27h-3.86Z" style="fill: #f9e7fe;"/>
        <path d="M35.59,24.61l3.27-16.47h7.59c2.61.16,4.61,1.46,4.76,4.24.23,4.31-2.77,7.92-7.16,7.95h-3.82l-.83,4.28h-3.82,0Z" style="fill: #f9e7fe;"/>
        <path d="M30.35,3.86l-.82,4.28h3.77c2.11.16,4.21,1.01,4.01,3.5l-1.48,8.69h-4.05l1.43-7.59c.23-1.04.03-1.5-1.07-1.56h-3.23l-1.8,9.15h-3.88l3.26-16.47s3.86,0,3.86,0Z" style="fill: #f9e7fe;"/>
        <path d="M13.83,17.29l1.02-6.1h2.83c1.33.09,2.32.6,2.24,2.09-.13,2.34-1.22,3.87-3.67,4.02-.79.05-1.62-.04-2.41,0h-.01Z" style="fill: #a63be8;"/>
        <path d="M41.05,17.29l1.01-6.11c.93.04,1.9-.05,2.83,0,1.6.08,2.41.78,2.21,2.43-.27,2.23-1.3,3.53-3.64,3.68-.79.05-1.62-.04-2.41,0h0Z" style="fill: #a63be8;"/>
      </g>
    </g>
  </g>
</svg>