<?xml version="1.0" encoding="UTF-8"?>
<svg id="Calque_2" data-name="Calque 2" xmlns="http://www.w3.org/2000/svg" viewBox="0 0 40.93 39.9">
  <g id="Calque_2-2" data-name="Calque 2">
    <g id="CV_VF" data-name="CV VF">
      <g>
        <path d="M34.28,0c3.45.05,6.59,3.19,6.65,6.65v26.6c-.06,3.46-3.2,6.6-6.65,6.65H6.65c-3.46-.06-6.6-3.2-6.65-6.65V6.65C.04,3.23,3.22.01,6.65,0h27.63Z" style="fill: #a63be8;"/>
        <path d="M12.9,22.51v5.6s-.07.08-.08.08h-3.53s-.08-.07-.08-.08V10.36s.08-.09.1-.1c.19-.09,1.49-.02,1.82-.02,3.28-.08,7.29-.61,9.67,2.2,1.79,2.11,1.74,5.82-.08,7.9-1.96,2.24-5.07,2.24-7.83,2.18h.01Z" style="fill: #f9e7fe;"/>
        <path d="M23.95,24.42c.02-.07.1-.08.17-.07.16.02.62.33.82.41,1.15.48,3.67,1.07,4.79.43.43-.25.55-.72.25-1.13-.47-.64-2.14-1.09-2.9-1.45-1.32-.62-2.64-1.53-3.01-3.03-.61-2.47,1.1-4.53,3.45-5.04,1.33-.29,3.97-.25,5.23.29.3.13.37.17.4.52.06.65.06,1.91,0,2.56s-.59.17-.92.05c-1.05-.39-3.09-.79-4.14-.41-.93.33-.63,1.19.07,1.62,1.96,1.21,5.36,1.51,5.66,4.47.48,4.78-4.96,5.45-8.46,4.57-.2-.05-1.41-.41-1.41-.58v-3.22h0Z" style="fill: #f9e7fe;"/>
        <path d="M12.95,19.28v-5.73c.09-.02.18-.05.28-.05,2.43-.19,5.37.05,5.15,3.2-.19,2.67-3.43,2.67-5.43,2.58Z" style="fill: #a63be8;"/>
      </g>
    </g>
  </g>
</svg>