<?xml version="1.0" encoding="UTF-8"?>
<svg id="Calque_2" data-name="Calque 2" xmlns="http://www.w3.org/2000/svg" viewBox="0 0 59.03 30.9">
  <g id="Calque_2-2" data-name="Calque 2">
    <g id="CV_VF" data-name="CV VF">
      <g>
        <path d="M11.48.02c3.01-.11,6.59.26,9.41,1.35,1.6.62,3.76,1.88,4.09,3.71.14,6.96.2,13.98-.03,20.93-.51,1.73-2.16,2.75-3.73,3.4-4.89,2.04-13.38,2.05-18.14-.33-1.26-.63-2.52-1.58-2.95-2.98C-.13,19.28.1,12.42.02,5.59.17,3.02,3,1.71,5.14,1.04,7.17.41,9.35.11,11.48.03h0Z" style="fill: #a63be8;"/>
        <path d="M47.04,22.27v1.57h-2.32v-6.07h2.06s.11.1.11.11v1.54c.85.07,1.62-.9,1.96-1.6.79-1.61.54-3.46-.61-4.81-2.63-3.08-6.73-.15-6.38,3.38.13,1.27,1.05,2.21,2.02,2.93v2.66c-2.19-.55-4.34-2.82-4.63-5.08-.53-4.24,2.48-7.86,6.84-7.59,7.34.46,7.87,11.45.94,12.97h.01Z" style="fill: #a63be8;"/>
        <path d="M37.6,9.52v2.32l-2.13-.15c-.9,0-3.5.12-2.14,1.54,1.6,1.69,5.01,3,4.73,5.92-.15,1.53-1.92,2.89-3.41,2.89h-4.16v-2.47c1.08-.1,4.05.43,4.84-.3.33-.3.04-.65-.19-.94-.93-1.16-2.52-2.02-3.52-3.22-1.23-1.49-2.14-4.17.1-5.22.18-.08.99-.36,1.14-.36h4.76-.02Z" style="fill: #a63be8;"/>
        <path d="M55.82,9.52c0,2.39-.02,4.78,0,7.16,0,.42-.07.88,0,1.34.08.52.53,1.07,1.04,1.21.09.02.58.11.64.11h1.42s.11.1.11.11v2.51h-3.94c-.73,0-1.91-1.58-1.91-2.29v-10.16h2.64Z" style="fill: #a63be8;"/>
        <path d="M11.18,2.27c2.93-.14,8.28.27,10.69,2.09,1.16.88,1.27,1.52.09,2.46-3.63,2.88-15.53,2.92-19.04-.15-1.07-.93-.69-1.63.34-2.35,1.98-1.4,5.54-1.93,7.93-2.05h0Z" style="fill: #f9e7fe;"/>
        <path d="M22.82,8.99v3.41c0,.6-1.29,1.42-1.78,1.67-4.13,2.13-13.44,2.22-17.44-.23-.29-.18-1.33-.98-1.33-1.3v-3.56c.7.35,1.39.71,2.14.98,4.69,1.7,11.82,1.72,16.48-.09.66-.26,1.27-.63,1.93-.88h0Z" style="fill: #f9e7fe;"/>
        <path d="M22.82,15.67v3.49c0,.43-1.07,1.2-1.43,1.42-4.05,2.4-13.95,2.44-17.94-.12-.3-.19-1.18-.86-1.18-1.22v-3.56c.41.19.79.45,1.2.63,4.81,2.15,13.15,2.17,17.97.05.47-.21.9-.5,1.37-.69h0Z" style="fill: #f9e7fe;"/>
        <path d="M22.82,22.42v2.96c0,.36-.69.99-.98,1.19-3.89,2.74-14.6,2.77-18.51.08-.24-.16-1.06-.86-1.06-1.12v-3.19c.44.25.89.51,1.35.71,4.64,2.04,12.35,2.05,17.08.29.73-.27,1.39-.68,2.12-.92h0Z" style="fill: #f9e7fe;"/>
      </g>
    </g>
  </g>
</svg>