<?xml version="1.0" encoding="UTF-8"?>
<svg id="Calque_2" data-name="Calque 2" xmlns="http://www.w3.org/2000/svg" xmlns:xlink="http://www.w3.org/1999/xlink" viewBox="0 0 871.12 339.32">
  <defs>
    <linearGradient id="Dégradé_sans_nom_39" data-name="Dégradé sans nom 39" x1="493.04" y1="157.95" x2="863.8" y2="314.04" gradientUnits="userSpaceOnUse">
      <stop offset="0" stop-color="#a63be8"/>
      <stop offset=".05" stop-color="#ac43e7"/>
      <stop offset=".17" stop-color="#ba55e6"/>
      <stop offset=".33" stop-color="#c361e6"/>
      <stop offset=".53" stop-color="#c968e6"/>
      <stop offset="1" stop-color="#cb6be6"/>
    </linearGradient>
  </defs>
  <g id="Calque_1-2" data-name="Calque 1">
    <g id="Baleine">
      <path d="M481.41,189.89c-2.94-2.03-14.18-9.77-13.02-17.62.48-3.27,2.2-5.72,5.36-9.7,3.63-4.58,6.61-6.47,12.85-11.4,11.87-9.38,10.16-9.7,13.62-11.22,8.04-3.55,17.94-2.14,24.85,1.69,10.2,5.65,9.47,15.28,16.34,22.21,11.76,11.87,26.86,10.41,47.42,10.36-16.62-65-80.33-100.36-113.67-118.87-21.03-11.67-45.24-21.46-77.19-34.38-16.07-6.5-23.81-9.2-33.87-11.4-9.12-1.99-25.89-2.89-59.06-4.6-8.89-.46-12.59-.61-17.87.34-4.45.8-6.37,1.73-10.13,1.45-5.98-.46-8.76-3.39-13.18-5.53-4.32-2.09-4.85-.84-26.9-.85-13.73,0-18.33-.49-24.77,2.55-3.59,1.7-3.38,2.43-6.89,3.83-3.44,1.37-7.13,2.06-21.62,1.11-20.11-1.32-15.85-.37-19.29-1.31-1.72-.47-6.3-1.86-8.61.35-.57.55-.87,1.18-1.03,1.64-5.8-.19-10.47-.02-13.62.17-9.89.58-11.28,1.69-15.06.38-1.36-.47-3.44-1.39-5.74-.64-1.87.61-2.39,1.84-3.7,2.95-3.67,3.12-7.18-.09-14.56,1.64-5.85,1.37-7.73,4.35-10.66,3.02-2.43-1.1-2.85-3.92-4.82-3.95-1.55-.03-2.88,1.67-3.83,3.32-13.17.76-23.84,2.66-31.4,4.34-23.05,5.13-24.19,9.84-24.26,11.23-.12,2.59,3.06,4.13,2.3,6.13-.88,2.31-5.58,1.37-12.26,2.81C6.36,42.25.09,48.51,0,51.17c-.04,1.43.17,3.23.17,3.23.05.42.1.76.15,1.04,0,0,0,0,0,0,0,0,.1.62.23,1.26.1.49,1.75,6.6,2.92,8.93,2.75,5.46,9.44,3.01,15.17,9.03,2.98,3.13,2.38,5.06,3.65,8.19.64,1.57,1.34,2.6,2.48,4.11,3.33,4.45,8.63,9.19,10.21,10.68,4.5,4.23,10.36,11.69,13.28,20.68,1.58,4.88,1.65,7.94,4.34,9.45,2.83,1.58,4.68-1.11,10.47-1.02,6.04.09,6.54,3.06,13.53,3.57,4.99.37,4.99-1.13,9.96-.51,5.47.68,6.01,2.55,10.21,2.3,4.18-.26,4.93-2.2,8.68-1.79,3.02.33,3.72,1.72,6.64,2.55,5.15,1.47,9.89-.88,10.98-1.28,5-1.84,23.74,4.13,79.66,34.54,19.95,11.18,36.9,21.3,50.3,29.55,18.17,11.18,34.11,21,54.64,35.49,14.27,10.07,16.13,12.09,33.45,24.26.43.31.9.63,1.37.96l40.17,26.84c17.7,10.71,48.65,28.46,89.18,30.24,16.56.73,47.13,2.07,76.09-17.87,22.65-15.59,33.14-36.51,37.28-46.47,3.04-7.31,5.05-14.48,6.32-21.34-38.57-15.88-57.86-23.82-75.3-25.89-5.32-.63-20.51-2.15-34.81-12Z" style="fill: #a63be8;"/>
      <path d="M585.73,247.82c1.82-8.18-28.53-21.66-39.31-26.45-19.43-8.63-29.14-12.94-41.53-14.98-20.84-3.43-29.26,1.17-43.02-6.64-5.63-3.19-5.64-4.77-18.34-16.68-11.54-10.83-21.1-19.8-30.93-26.17-23.99-15.55-31.22-3.71-51.62-17.92-17.15-11.95-20.11-25.94-35.91-27.57-6.88-.71-8.78,1.68-17.39,2.89-18.88,2.66-27.99-6.29-48.32-12.26-30.65-9-31.07,5.14-68.85-3.23-10.63-2.35-23.8-6.44-37.79-1.02-4.7,1.82-6.71,3.64-13.7,5.7-6.38,1.88-10.39,2.04-25.28,3.83-13.02,1.57-11.51,1.63-14.04,1.79-25.18,1.52-41.6-13.03-47.53-6.72-1.24,1.32-2.99,4.59-2.3,7.66.67,2.99,3.38,4.45,2.81,5.96-.27.73-1.32,1.48-4.65,1.6.06.16.14.41.24.72.78,2.48.81,4,1.05,5.05.05.21.88,3.29,3.27,4.46,1.73.84,3.67.39,6.13-.19,1.9-.44,2.62-.94,4.36-.9.96.02,1.67.22,3.05.6,3.1.86,3.43,1.42,6.19,2.19,2.24.62,3.8.75,4.29.79,4.99.37,4.99-1.13,9.96-.51,5.47.68,6.01,2.55,10.21,2.3,4.18-.26,4.93-2.2,8.68-1.79,3.02.33,3.72,1.72,6.64,2.55,5.15,1.47,9.89-.88,10.98-1.28,5-1.84,23.74,4.13,79.66,34.54,19.95,11.18,36.9,21.3,50.3,29.55,18.17,11.18,34.11,21,54.64,35.49,14.27,10.07,16.13,12.09,33.45,24.26.43.31.9.63,1.37.96l40.17,26.84c7.36,5.47,18.42,12.69,32.99,18.71,23.27,9.62,42.97,11.03,56.13,11.86,14.93.94,26.3,1.66,41.28-2.16,17.39-4.44,29.45-12.4,34.87-16.05,12.38-8.32,19.61-16.59,21.6-18.93,2.87-3.37,7.55-8.87,10.38-15.06,1.02-2.24,4.02-9.4,5.29-12.47.34-.83.52-1.25.53-1.31Z" style="fill: #f9e7fe;"/>
      <path d="M307.67,231.17c-20.52-14.49-36.47-24.31-54.64-35.49-4.01,3.54-10.55,8.32-19.53,10.47-12.24,2.93-16.91-1.92-24.26,2.04-10.48,5.65-4.77,17.57-16.6,27.06-9,7.23-16.27,3.52-24,12.77-4.16,4.98-3.97,8.36-8.43,10.47-7.1,3.37-14.2-2.1-17.11,1.28-1.99,2.32,1.16,5.12,0,11.74-.91,5.15-4.25,11.6-8.94,12.51-2.88.56-4.99-1.23-6.13,0-1.61,1.73,1.54,6.41,0,7.66-1.01.82-2.75-.88-4.09,0-1.7,1.12-.08,4.66-1.79,6.13-1.43,1.23-3.51-.42-5.36,0-5.18,1.17-10.57,18.88-2.55,30.89,4.6,6.89,14.08,12.62,20.68,9.96,5.98-2.41,6.34-10.41,8.94-16.85,8.33-20.68,34.83-12.74,73.79-35.23,27.9-16.11,45.96-32.68,45.96-32.68,2.59-2.37,7.52-7.05,15.32-11.74,10.96-6.6,21.42-9.53,28.72-10.98Z" style="fill: #cb6be6;"/>
      <path d="M541.41,163.85c-6.87-6.94-6.14-16.56-16.34-22.21-6.91-3.83-16.81-5.24-24.85-1.69-3.46,1.53-1.75,1.84-13.62,11.22-6.24,4.93-9.22,6.83-12.85,11.4-3.16,3.98-4.88,6.43-5.36,9.7-1.16,7.85,10.08,15.59,13.02,17.62,14.3,9.85,29.49,11.37,34.81,12,17.44,2.07,36.72,10.01,75.3,25.89,38.24,15.75,36.91,20.95,54.15,22.36,13.54,1.11,38.48-.1,39.83,6.13.28,1.31-.63,2.22,0,3.83,1.5,3.82,8.2,2.52,15.57,4.85,11.78,3.73,12.86,12.83,21.96,13.02,3.83.08,5.08-1.5,9.96-3.32,12.67-4.72,24.95-1.75,32.17,0,13.66,3.31,12.14,7.84,31.14,16.75,14.82,6.95,30.36,11.05,41.12,13.89,12.54,3.31,16,3.14,21.7,7.15,2.83,1.99,6.06,4.89,8.68,3.83,2.74-1.11,3.28-5.92,3.32-7.4.22-8.71-13.68-12.21-33.7-25.79-8.19-5.55-9-7.02-17.19-13.11-18.71-13.91-35.06-21.58-58.21-32.68-61.32-29.4-50.07-25.19-65.53-31.83-44.19-18.97-66.29-28.45-86.04-30.38-32.11-3.14-53.48,4.45-69.02-11.23Z" style="fill: url(#Dégradé_sans_nom_39);"/>
      <path d="M382.66,283.23s-40.17-26.84-40.17-26.84h0c-14.59-2.86-25.52-1.68-32.9,0-9.5,2.16-18.18,6.27-28.6,2.61-3.97-1.4-7.1-3.54-7.91-2.61-1.35,1.54,4.84,10.27,10.72,15.63,3.27,2.98,14.89,12.63,58.69,13.28,10.04.15,23.8-.15,40.18-2.07h0Z" style="fill: #a63be8;"/>
      <path d="M384.41,104.91c-6.13-15.56-19.13-40.92-45.59-54.22-10.17-5.12-18.9-6.72-29.65-8.46-42.61-6.87-76.99-9.27-94.38-10.55-37.43-2.75-84.58-6.8-115.11-4.81-15.67,1.02-24.75,2.5-24.75,2.5-10.79,1.76-16.73,3.62-29.93,5.54-6.68.97-12.13,1.51-15.53,1.8" style="fill: none; stroke: #000; stroke-miterlimit: 10;"/>
      <g id="Oeil">
        <path d="M412.59,98.4c.22-4.54-7.92-9.86-15.57-9.79-9.57.1-15.09,8.59-15.56,9.34.99,2.22,1.97,4.43,2.96,6.65,2.03.8,5.02,1.72,8.69,1.88,8.47.37,19.25-3.31,19.49-8.09Z" style="stroke: #000; stroke-miterlimit: 10; stroke-width: .25px;"/>
        <path d="M397.31,92.03c-4.45-.05-9.04,3.64-8.6,6.43.36,2.25,3.94,3.61,6.51,3.79,4.47.3,9.56-2.74,9.4-5.62-.13-2.42-3.99-4.56-7.32-4.6Z" style="fill: #4605fa; stroke: #000; stroke-miterlimit: 10; stroke-width: .25px;"/>
        <path d="M398.24,93.39c-1.2.05-2.44,1.1-2.3,2.17.12.97,1.32,1.59,2.3,1.58,1.11,0,2.42-.8,2.43-1.88,0-1.07-1.29-1.92-2.43-1.88Z" style="fill: #fff;"/>
      </g>
      <path d="M47.77,117.61c3.59-.09,4.62-.88,4.89-1.61.56-1.51-2.13-2.94-2.81-5.96-.69-3.07,1.05-6.34,2.3-7.66,5.93-6.31,22.36,8.25,47.53,6.72,2.54-.15,1.03-.22,14.04-1.79,14.89-1.79,18.89-1.95,25.28-3.83,6.99-2.06,9-3.88,13.7-5.7,13.98-5.42,27.16-1.33,37.79,1.02,37.78,8.37,38.2-5.77,68.85,3.23,20.33,5.97,29.44,14.91,48.32,12.26,8.61-1.21,10.51-3.61,17.39-2.89,15.8,1.64,18.77,15.63,35.91,27.57,20.4,14.21,27.64,2.37,51.62,17.92,9.83,6.37,19.39,15.34,30.93,26.17,12.69,11.91,12.71,13.49,18.34,16.68,13.76,7.81,22.18,3.21,43.02,6.64,17.28,2.84,29.51,8.96,41.53,14.98,10.49,5.25,24.57,13.55,39.31,26.45" style="fill: none;"/>
      <g id="Tâches">
        <path d="M301.18,90.9c-.19-.46-.75-.4-3.58-.85-4.44-.7-5.29-1.19-6.28-.49-.99.7-1.48,2.12-1.21,3.26.49,2.06,3.44,2.92,5.49,2.74,3.32-.29,6.08-3.45,5.58-4.66Z" style="stroke: #000; stroke-miterlimit: 10; stroke-width: .25px;"/>
        <path d="M281.18,85.79c-.21-.49-.72-.75-5.53-1.28-5.33-.58-6-.39-6.53.13-1.35,1.32-1.27,4.3,0,5.3.93.73,1.86-.09,5.26.11,2.1.12,2.32.47,3.3.21,2.19-.58,4.08-3.14,3.51-4.47Z" style="stroke: #000; stroke-miterlimit: 10; stroke-width: .25px;"/>
        <path d="M285.69,57.19c-.99-.87-2.39.25-5.62.68-4,.54-5.24-.71-6.98.51-1.66,1.17-2.37,3.61-1.7,4.34.77.85,2.91-1.07,5.45-.02,1.13.47,1.04.98,2.39,1.46,1.01.36,1.96.33,3.82.26,1.87-.07,2.81-.12,3.23-.6.5-.56.4-1.54.17-3.49-.21-1.84-.32-2.76-.77-3.15Z" style="stroke: #000; stroke-miterlimit: 10; stroke-width: .25px;"/>
        <path d="M253.39,71.96c-.67-2.28-5.76-3.1-9.45-1.79-2.48.88-4.36,2.74-4.09,3.4.31.76,3.28-.43,5.02,1.28.59.58.42.87,1.02,1.36,1.26,1.02,3.42.86,4.94,0,1.53-.87,2.99-2.78,2.55-4.26Z" style="stroke: #000; stroke-miterlimit: 10; stroke-width: .25px;"/>
        <path d="M224.88,76.92c.69.36-.18,1.96.77,2.95,1.49,1.56,4.94-1.03,7.06.6,1.13.87,1.63,2.73,1.02,3.69-.81,1.28-3.48.8-8,0-3.38-.6-5.08-.92-5.45-1.9-.8-2.13,3.41-5.94,4.6-5.34Z" style="stroke: #000; stroke-miterlimit: 10; stroke-width: .25px;"/>
        <path d="M206.94,47.71c1.4-.14,1.86,2.1,4.24,2.64,1.84.42,3.03-.59,3.49,0,.52.66-.38,2.69-1.87,3.66-2.64,1.7-7.52.33-8.17-2.21-.42-1.67.95-3.95,2.31-4.09Z" style="stroke: #000; stroke-miterlimit: 10; stroke-width: .25px;"/>
        <path d="M176.37,62.17c.72-.35,1.34-.12,2.64.17,4.2.94,5.62.27,6.04,1.19.46.99-.69,2.79-2.13,3.49-.88.43-1.88.3-3.83,0-2.45-.37-3.67-.56-4.09-1.4-.54-1.11.19-2.88,1.36-3.45Z" style="stroke: #000; stroke-miterlimit: 10; stroke-width: .25px;"/>
        <path d="M135.73,64.11c-3.88.62-6.33-1.35-6.85-.64-.54.73,1.35,3.73,4.21,5.19.42.21,3.75,1.85,7.28.34,2.2-.94,4.53-3.11,4.09-4.38-.47-1.35-3.98-1.48-6.17-1.15-1.33.2-1.31.44-2.55.64Z" style="stroke: #000; stroke-miterlimit: 10; stroke-width: .25px;"/>
        <path d="M115.35,34.43c-.78,1.07.79,4.36,3.45,5.36,1.64.62,3.13.15,3.57,0,2.9-.96,4.92-4.24,4.21-5.36-.52-.83-2.15.17-6.68,0-3.07-.11-4.09-.64-4.55,0Z" style="stroke: #000; stroke-miterlimit: 10; stroke-width: .25px;"/>
        <path d="M106.71,64.81c3.42.49,5.29-1.89,6.45-.94.97.8.65,3.3-.55,4.81-1.38,1.73-3.63,1.81-5.32,1.87-2,.07-6.92-.25-7.53-2.72-.39-1.57,1.02-3.72,2.68-4.17,1.46-.39,2.03.83,4.27,1.15Z" style="stroke: #000; stroke-miterlimit: 10; stroke-width: .25px;"/>
        <path d="M65.33,64.15c2.17-.71,2.66-1.95,3.45-1.66,1.09.4,1.72,3.36.38,5.3-1.26,1.82-4.07,2.48-5.87,1.28-1.49-.99-2.23-3.22-1.53-4.15.54-.73,1.54-.1,3.57-.77Z" style="stroke: #000; stroke-miterlimit: 10; stroke-width: .25px;"/>
        <path d="M41.43,71.6c-1.29.34-2.1-1.93-4.72-2.17-1.72-.16-2.61.71-3.02.25-.63-.7.59-3.68,2.98-4.8,1.8-.84,4.83-.88,6.09,1.19,1.26,2.08.05,5.18-1.32,5.54Z" style="stroke: #000; stroke-miterlimit: 10; stroke-width: .25px;"/>
        <path d="M42.28,40.95c-3.81,1.09-7.69,2.2-7.53,3.28.14.91,3.1,1.12,4.38,1.21,2.15.15,4.87.35,5.87-1.23.63-1,.52-2.63-.3-3.26-.64-.48-1.55-.25-2.43,0Z" style="stroke: #000; stroke-miterlimit: 10; stroke-width: .25px;"/>
        <path d="M20.71,47.05c-.57-.07-.59,3.29-2.64,4.21-1.64.74-2.99-.81-4.21,0-1.31.87-1.55,3.85-.3,4.77,1.18.86,3.26-.41,4.13-.94.62-.38,2.63-1.64,3.32-4.13.52-1.87.13-3.86-.3-3.91Z" style="stroke: #000; stroke-miterlimit: 10; stroke-width: .25px;"/>
        <path d="M9.05,55.34c-1.85.51-3.63,2.2-4.04,4.43-.09.51-.46,2.5.51,3.19,1.33.94,4.84-.75,5.87-3.4.55-1.41.57-3.56-.51-4.21-.57-.35-1.26-.16-1.83,0Z" style="stroke: #000; stroke-miterlimit: 10; stroke-width: .25px;"/>
        <path d="M82.35,17.51c.03-1.02,7.42-2.31,8.04-.85.24.57-.57,1.49-1.19,1.91-1.33.91-3.01.43-4.55,0-1.11-.31-2.31-.65-2.3-1.06Z" style="stroke: #000; stroke-miterlimit: 10; stroke-width: .25px;"/>
        <path d="M119.93,10.6c-1.75.49-3.91,1.09-4,2.04-.1,1.1,2.58,2.51,5.06,2.64,1.37.07,4.13-.17,4.51-1.57.35-1.27-1.37-3.11-3.15-3.45-.7-.13-1.29.02-2.43.34Z" style="stroke: #000; stroke-miterlimit: 10; stroke-width: .25px;"/>
        <path d="M153.12,12.02c-.28-1.01.99-2.58,2.43-3.11,2.08-.76,3.43,1.07,5.62.3,1.84-.65,2.38-2.49,2.77-2.3.52.25.23,3.85-2.09,5.7-2.95,2.36-8.24,1.12-8.72-.6Z" style="stroke: #000; stroke-miterlimit: 10; stroke-width: .25px;"/>
        <path d="M314.13,24.42c-.46-.89,3.19-5.58,6.35-4.44,2.48.9,3.56,5,2.27,6.61-.49.6-1.46,1.04-2.23.8-1-.32-.86-1.52-1.88-2.36-1.66-1.37-4.16.04-4.5-.61Z" style="stroke: #000; stroke-miterlimit: 10; stroke-width: .25px;"/>
        <path d="M282.01,19.06c-1.02-2.39,1.42-6.31,3.45-6.38,1.88-.07,2.62,3.2,5.55,3.45,1.58.13,2.56-.71,2.94-.26.51.63-.7,2.97-2.55,4.21-2.94,1.97-8.24,1.66-9.38-1.02Z" style="stroke: #000; stroke-miterlimit: 10; stroke-width: .25px;"/>
        <path d="M257.18,15.82c1.15.52.8,1.79,2.09,2.6,1.55.97,3.37-.04,3.66.55.24.5-.85,1.71-2.1,2.46-2.65,1.58-7.05,1.7-8.19-.46-.6-1.13-.18-2.66.51-3.62.96-1.32,2.82-2.09,4.04-1.53Z" style="stroke: #000; stroke-miterlimit: 10; stroke-width: .25px;"/>
        <path d="M258.87,10.44c-.26,1.18,1.7,2.75,3.54,3.16,2.72.61,5.39-1.25,5.27-1.85-.14-.64-3.48-.01-4.4-1.72-.2-.37-.14-.59-.41-.83-.94-.83-3.71,0-3.99,1.24Z" style="stroke: #000; stroke-miterlimit: 10; stroke-width: .25px;"/>
        <path d="M212.82,5.16c0-.44,1.47-.92,4.43-1.87,3.97-1.29,4.29-1.01,4.38-.89.51.64-.59,2.87-2.38,3.83-2.66,1.43-6.42-.15-6.43-1.06Z" style="stroke: #000; stroke-miterlimit: 10; stroke-width: .25px;"/>
        <path d="M209.5,14.1c-.46-.77,1.72-3.58,3.32-3.28.84.16.9,1.07,2.04,1.45,1.36.45,2.32-.49,2.68-.09.56.63-1.03,3.62-2.47,3.53-.61-.04-.67-.6-1.55-1.11-1.82-1.06-3.65.11-4.02-.51Z" style="stroke: #000; stroke-miterlimit: 10; stroke-width: .25px;"/>
        <path d="M204.22,18.06c.29-.49,1.06-.49,1.74-.51,3.87-.13,4.98-1.01,5.4-.38.51.76-.56,2.86-2.3,3.62-1.58.69-3.55.17-4.43-.98-.32-.42-.73-1.23-.43-1.74Z" style="stroke: #000; stroke-miterlimit: 10; stroke-width: .25px;"/>
      </g>
      <path d="M494.78,202.61c.07-.22-1.73-.63-5.78-2.66-6.27-3.14-7.27-4.81-13.09-8.23-7.95-4.68-10.15-3.94-11.44-6.81-1.44-3.2.81-5.23,2.04-11.83,1.12-5.99,1.69-17.23-2.98-19.83-3.67-2.04-7.18,3.13-13.53,1.02-3.39-1.13-3.51-2.98-7.66-4.34-4.11-1.36-6.33-.3-9.53-.6-9.11-.83-16.1-11.62-15.06-12.94,1.13-1.43,11.17,9.17,28.94,11.4,7.79.98,15.95.2,16.09-1.02.1-.88-3.95-1.68-10.38-3.91-7.07-2.46-6.65-3.05-18.47-8.17-12.04-5.21-18.06-7.82-24.43-9.36-3.58-.87-4.94-.96-7.23-2.21-4.89-2.67-8.67-7.69-12.17-12.34-1.34-1.78-1.86-2.16-2.39-2.87-1.89-2.54-2.83-4.55-3.24-4.39-.26.1-.15.99-.12,1.22.73,5.54,5.5,10.63,5.5,10.63,5.08,6.02,9.54,6.31,10.83,11.32.67,2.63-.34,3.39,0,5.87.87,6.36,8.74,10.16,14.19,12.85,31.26,15.43,35.48,20.23,35.57,24.34.07,2.77-1.8,3.12-1.7,6.47.2,7.09,8.76,12.22,14.81,15.74,15.29,8.91,31.04,11.29,31.23,10.64Z" style="stroke: #000; stroke-miterlimit: 10;"/>
    </g>
  </g>
</svg>