<?xml version="1.0" encoding="UTF-8"?>
<svg id="Calque_2" data-name="Calque 2" xmlns="http://www.w3.org/2000/svg" xmlns:xlink="http://www.w3.org/1999/xlink" viewBox="0 0 1101.27 605.5">
  <defs>
    <linearGradient id="Dégradé_sans_nom_39" data-name="Dégradé sans nom 39" x1="541.88" y1="424.12" x2="912.64" y2="580.21" gradientUnits="userSpaceOnUse">
      <stop offset="0" stop-color="#a63be8"/>
      <stop offset=".05" stop-color="#ac43e7"/>
      <stop offset=".17" stop-color="#ba55e6"/>
      <stop offset=".33" stop-color="#c361e6"/>
      <stop offset=".53" stop-color="#c968e6"/>
      <stop offset="1" stop-color="#cb6be6"/>
    </linearGradient>
  </defs>
  <g id="Final">
    <g id="Girafe">
      <path d="M727.99,507.79c26.22,23.34,69.04,24.49,99.77,0l82.01-145.02c2.8,13.76,7.97,23.6,11.79,29.63,4.74,7.47,8.81,13.64,16.15,15.58,4.87,1.29,8.7.7,15.34-.75,5.29-1.16,15.24-3.34,23.26-11.79,4.65-4.9,6.71-9.87,7.69-12.27,8.39-20.72-3.25-44.6-5.51-49.05,7.36-7.82,9.93-14.88,10.85-20.05,1.25-7.01-.77-9.04,1.65-14.12,3.54-7.42,9.47-6.45,13.8-14.98,2.67-5.26.97-6.7,4.06-10.54,3.06-3.79,6.61-4.75,7.95-9.21.73-2.44.07-3.5,1.03-4.32,3.04-2.59,13.17,4.9,13.74,4.06.48-.7-7.27-4.82-9.01-12.84-.32-1.46-.34-2.6-.36-3.92-.08-5.97,1.67-10.77,3.17-13.88,4.41-.16,10.93-.86,18.27-3.55,2.37-.87,11.75-4.47,21.54-13.72,6.12-5.79,11.91-13.32,25.07-46.39,8.51-21.39,12.72-32.16,10.37-35.56-8.02-11.61-49.03-6.65-75.39,15.27-14.94,12.42-28.91,33.38-33.93,30.55-1.16-.65-2.27-2.82-2.72-4.56-.82-3.16.55-5,.75-8.41.24-4.21-1.51-7.06-2.1-8.71-3.73-10.47,20.73-25.4,19.53-37.85-1.38-14.25-36.52-26.77-45.04-17.86-6.84,7.15,1.58,30.08-2.87,45.04-1.66,5.6-4.7,8.63-5.41,9.31-.94.91-3.59,3.4-7.81,4.51-4.85,1.27-11.64.68-15.62-3.6-2.88-3.1-3.36-7.14-3.45-9.91-.71-20.33,17.01-33.28,13.52-43.41-4.34-12.59-40.25-17.31-48.37-5.41-4.91,7.21,2.28,17.71,3.76,50.17.16,3.47.33,8.89-2.85,14.12-4.09,6.72-13.45,12.67-21.03,10.81-11.61-2.84-7.6-21.16-24.63-39.05-9.52-9.99-20.3-14.29-29.35-17.89-13.62-5.42-24.28-9.67-31.04-4.94-8.25,5.78-5.91,21.64-3.21,39.94,2.94,19.96,5.13,34.76,17.18,48.99,12.32,14.54,28.03,20.3,36.95,22.68,1.87,3.05,4.43,6.66,7.9,10.35,2.93,3.11,5.84,5.56,8.39,7.45-38.6,24.87-67.17,93.03-125.8,151.86-33.03,33.14-30.72,85.94,0,113.29Z" style="fill: #f9e7fe;"/>
      <path d="M1025.39,234.32c4.41-.16,10.93-.86,18.27-3.55,2.37-.87,11.75-4.47,21.54-13.72,6.12-5.79,11.91-13.32,25.07-46.39,8.51-21.39,12.72-32.16,10.37-35.56-8.02-11.61-49.03-6.65-75.39,15.27-14.94,12.42-28.91,33.38-33.93,30.55-.25,19.64,5.08,27.96,10.53,31.78,6.04,4.23,14.48,4.53,19.98,12.62,2.25,3.31,3.15,6.67,3.57,9.02Z" style="fill: #f9e7fe;"/>
      <path d="M991.29,180.76c-.95-.99-2.18-2.58-2.7-4.77-.74-3.12.56-5.07.75-8.41.24-4.21-1.51-7.06-2.1-8.71-3.73-10.47,20.73-25.4,19.53-37.85-1.38-14.25-36.52-26.77-45.04-17.86-6.84,7.15,1.58,30.08-2.87,45.04-1.66,5.6-4.7,8.63-5.41,9.31-.94.91-3.59,3.4-7.81,4.51-4.85,1.27-11.64.68-15.62-3.6-2.88-3.1-3.36-7.14-3.45-9.91-.71-20.33,17.01-33.28,13.52-43.41-4.34-12.59-40.25-17.31-48.37-5.41-4.91,7.21,2.28,17.71,3.76,50.17.16,3.47.33,8.89-2.85,14.12-4.09,6.72-13.46,12.78-21.04,10.93l-34.6,49.61c1.82,2.97,4.3,6.47,7.65,10.06,3.03,3.26,6.04,5.79,8.65,7.73-.51-3.39-.9-8.9.71-15.32,1.03-4.1,2.25-8.93,6.25-13.06,6.4-6.6,17.22-8.65,25.44-5.27,5.57,2.29,8.71,6.57,10.16,8.67,10.68,15.48,14.62,35.38,17.33,51.56,5.68,34.02,8.41,51.26,2.7,62.72-.83,1.67-3.87,7.32-5.41,15.53-1.19,6.34-1.01,11.74-.69,15.28,2.8,13.82,8.01,23.67,11.79,29.63,4.74,7.47,8.81,13.64,16.15,15.58,4.87,1.29,8.7.7,15.34-.75,5.29-1.16,15.24-3.34,23.26-11.79,4.65-4.9,6.71-9.87,7.69-12.27,8.39-20.72-3.25-44.6-5.51-49.05-.31-4.07-.91-10.49-2.13-18.33-1.58-10.14-3.26-16.56-3.94-19.75-4.07-18.92-1.49-55.85,18.37-71.19,4.06-3.13,10.46-6.62,10.54-12.17.06-4.47-4.04-6.51-7.21-12.58-2.4-4.59-3.86-10.72-2.83-19.01Z" style="fill: #a63be8;"/>
      <path d="M895.46,150.2c-1.47-32.46-8.67-42.96-3.76-50.17,8.11-11.9,44.02-7.18,48.37,5.41,3.49,10.13-14.23,23.07-13.52,43.41-4.77-1.26-12.1-2.5-20.8-1.24-3.98.57-7.44,1.56-10.29,2.6Z"/>
      <path d="M958.85,148.55c4.45-14.96-3.97-37.89,2.87-45.04,8.52-8.91,43.66,3.6,45.04,17.86,1.2,12.45-23.25,27.38-19.53,37.85-2.81-2.22-6.94-5-12.39-7.18-6.39-2.56-12.11-3.29-16-3.49Z"/>
      <path d="M837.48,224.85c-8.92-2.38-24.63-8.14-36.95-22.68-12.05-14.22-14.24-29.02-17.18-48.99-2.7-18.3-5.04-34.15,3.21-39.94,6.75-4.73,17.42-.49,31.04,4.94,9.05,3.6,19.83,7.9,29.35,17.89,17.04,17.89,13.02,36.22,24.63,39.05-.38,5.65-2.54,28.5-20.77,42.5-4.54,3.49-9.18,5.74-13.33,7.22Z" style="fill: #f9e7fe;"/>
      <path d="M978.49,334.13c-2.62-4-6.62-5.7-9.65-6.99-3.6-1.53-6.73-2.03-10.81-2.44-12.02-1.2-18.03-1.8-22.64-.07-1.48.56-13.58,5.1-15.1,16.03-1.14,8.24,4.23,16.51,10.69,19.64,6.58,3.19,9.42-1.29,24.91,0,8.05.67,9.82,2.09,14.64.75,6.35-1.76,13-6.93,13.07-12.28,0-.62-.55-2.29-1.67-5.61-1.73-5.16-2.6-7.74-3.44-9.03Z" style="fill: none; stroke: #cb6be6; stroke-miterlimit: 10; stroke-width: .25px;"/>
      <path d="M973.87,334.61c-.77.12-.48,1.99-1.75,5.18-1.8,4.53-4.02,4.86-5.57,8.22-2.53,5.48-.19,12.26.79,12.28.57.01.36-2.29,1.92-5.41,2.79-5.6,7.06-5.42,8.45-9.46,1.66-4.82-2.37-11.05-3.83-10.81Z"/>
      <path d="M938.95,355.78c2.06-.48,3.6-5.67,1.9-9.2-1.52-3.15-4.44-2.49-6.85-6.07-2.51-3.73-1.67-7.89-2.14-7.89-.5,0-1.23,4.65-.68,9.8.58,5.44,2.25,8.19,2.7,8.9.71,1.12,3.12,4.91,5.07,4.46Z"/>
      <path d="M846.53,145.17c5.64,5.52,2.6,11.88,4.17,29.4,1.91,21.33,8.38,33.73,3.89,36.43-2.44,1.46-6.75-.73-7.83-1.29-4.12-2.1-4.12-4.79-8-7.84-4.11-3.23-5.85-1.58-11.49-4.55-6.17-3.25-11.45-9.11-10.36-11.27,1.22-2.41,9.97.69,10.7-1.13,1.09-2.7-17.78-10.84-16.56-16,.87-3.66,10.9-1.72,13.18-6.42,3.77-7.76-18.37-23.82-15.66-27.83.73-1.08,2.93-.77,20.28,4.17,14.89,4.24,16.18,4.84,17.69,6.31Z"/>
      <path d="M1065,150.2c1.45,4.66-25.06,15.35-22.98,22.26,1.07,3.56,9.07,3.94,9.01,6.76-.06,2.83-8.17,4.05-8.11,7.06.04,2.13,4.12,2.93,3.91,4.51-.21,1.49-4,1.7-10.51,3.6-3.52,1.03-8.69,2.81-8.56,3.45.23,1.13,16.37-3,17.57,0,1.07,2.66-8.89,12.83-19.08,13.67-1.9.16-6.09.17-10.21,2.85-1.75,1.13-2.96,2.41-3.71,3.3l-10.48-4.99c1.83-7.39,5.07-18.38,10.89-31.02,6.23-13.54,9.58-20.59,17.12-26.17,14.14-10.45,33.98-9.05,35.15-5.29Z"/>
      <g id="Oeil">
        <path d="M998.35,277.12c-2.86-3.78-6.43-3.16-7.05-5.63-.5-2,1.6-4.09,5.81-8.26,3.98-3.94,6.92-6.78,11.38-7.4,1.38-.19,1.54.02,4.17,0,4.57-.04,8.24-.71,10.66-1.28h.02c2.56,6.43,8.68,9.79,8.25,10.42-.58.84-10.71-6.65-13.74-4.06-.96.82-.3,1.88-1.03,4.32-1.34,4.46-4.9,5.41-7.95,9.21-1.79,2.23-1.98,3.65-2.33,5.47h0c-2.43,3.66-3.83,4.2-4.68,4-1.63-.39-1.03-3.53-3.49-6.78Z"/>
        <path d="M998.95,265.93c1.24-4.77,6.02-8.19,10.93-8.22,4.23-.03,7.15,2.46,7.96,3.2-.96.82-.3,1.88-1.03,4.32-1.24,4.12-4.36,5.27-7.24,8.4h-.03c-.43.61-3.07,4.28-5.97,3.91-3.57-.46-5.87-6.8-4.62-11.6Z" style="fill: #4605fa;"/>
      </g>
      <path d="M821.51,274.25c9.05-11.43,18-21.11,27.47-28.22.34.34.68.68,1.01,1.05-2.2,2.54-4.83,6.43-4.17,10.63.49,3.11,2.52,4.69,3.6,6.4,2.28,3.58,2.36,10.78-8.34,26.81-.11.44-2.33,9.31-6.53,9.69-3.93.35-8.58-6.85-8.56-13.29.02-7.02,5.58-11.28,3.94-13.47-.67-.89-2.58-1.5-8.43.4Z" style="fill: #a63be8;"/>
      <g id="Oeil-2" data-name="Oeil">
        <path d="M895.24,262.64c-.76,2.48-6.31.51-14.49,4.88-5.02,2.68-6.04,5.08-9.39,4.96-5.07-.19-8.59-5.93-8.86-6.38-3.87-6.49-.13-11.82-3.6-15.92-1.46-1.72-4.46-3.55-11.44-3l6.33-4.52c1.43-.68,3.72-1.57,6.61-1.79,4.7-.36,8.99,1.19,20.95,9.46,9.72,6.72,14.56,10.13,13.89,12.32Z"/>
        <path d="M881.27,252.2c1.45,2.53,2.05,6.55,0,9.69-2.34,3.59-6.95,4.2-9.89,3.76-5.78-.87-8.47-6.34-9.26-7.94-.92-1.88-2.94-5.98-1.28-8.58,2.87-4.48,16.38-3.99,20.43,3.08Z" style="fill: #4605fa;"/>
      </g>
      <path d="M811.8,464.33c-4.63-10.14-14.85-6.22-24.78-18.93-11.17-14.29-9.25-32.74-13.06-32.68-.62.01-1.23.51-5.85,10.26-4.06,8.55-6.09,13.45-7.9,13.19-1.43-.21-1.16-3.43-3.15-4.06-2.52-.8-4.49,3.85-8.56,4.28-4.25.45-6.23-4.17-8.11-3.6-4.23,1.27-3.69,27.51,8.11,53.85,5.82,12.99,12.81,28.58,25.23,29.97,7.96.89,14.46-4.48,19.71-8.8,12.1-9.98,24.58-29.83,18.36-43.47Z" style="fill: #a63be8;"/>
      <path d="M855.38,458.95c-3.16.67-8.19,2.12-13.17,5.71-3.93,2.84-8.69,7.63-18.07,30.72-1.94,4.76-4.56,11.52-7.38,19.82l11-7.41,27.63-48.85Z" style="fill: #a63be8;"/>
      <path d="M742.53,379.09c-3.13,5.63-4.86,10.48-5.86,13.97-1.19,4.14-1.46,6.64-3.6,8.33-3.08,2.42-7.88,1.46-11.43.27l20.9-22.57Z" style="fill: #a63be8;"/>
      <path d="M779.93,331.96c-.11,4.52.39,8.22,2.25,8.9,2.17.8,4.36-3.22,5.86-2.7,3.89,1.33-1,31.59-14.42,54.91-7.65,13.3-13.67,16.69-18.17,17.49-1.65.3-3.5.32-6.16,1.46-7.5,3.24-9.7,10.41-11.12,9.95-1.28-.42-1.52-7.02,2.22-20.3,3.21-11.43,9.35-27.73,22.13-46.49l17.41-23.21Z" style="fill: #a63be8;"/>
      <path d="M862.16,417.76c.81,6.08-8.8,14.2-5.41,20.95.5.99,1.21,1.81,1.35,3.38.42,4.6-4.57,9.91-7.66,9.24-2.06-.45-1.73-3.22-3.83-4.96-5.26-4.35-14.84,6.83-23.21,4.96-14.75-3.3-15.39-44.82-31.09-47.54-1.95-.34-5.31-.28-6.08-2.13-1.1-2.63,4.32-5.86,7.66-11.29,4.07-6.61,2.32-12.05,2.1-24.77-.05-2.95-.51-30.04,4.21-31,4.03-.82,11.55,17.5,15.32,28.9,7.98,24.12,3.53,30.25,11.04,38.16,12.11,12.76,34.44,7.47,35.6,16.1Z" style="fill: #a63be8;"/>
      <path d="M869.37,401.67c-4.29,3.43-16.15-4.14-22.98-11.29-3.46-3.62-6.43-6.73-6.08-10.65.57-6.44,9.68-10.2,8.88-11.79-.67-1.32-6.29,2.63-10.69.71-8.88-3.88-5.86-28.73-10.59-29.29-.97-.12-1.44.89-2.18.57-2.84-1.2-1.57-18.14,4.66-20.17,3.94-1.29,8.58,3.83,17.27,13.41,6.03,6.64,9.05,9.97,10.55,15.16,2.5,8.61-2.25,10.24-.71,18.86,2.17,12.12,12.53,14.45,13.37,27.49.17,2.6.31,5.54-1.5,6.99Z" style="fill: #a63be8;"/>
      <path d="M892.8,358.06c-2.3-.5-3.25,2.94-6.61,3.54-6.47,1.15-11.1-10.15-15.02-8.95-3.26,1-4.4,10.16-1.8,17.42.69,1.94,4.42,12.37,13.07,12.77,7.4.34,13.26-6.89,14.27-13.26.77-4.88-1.05-10.91-3.91-11.53Z" style="fill: #a63be8;"/>
      <path d="M820.1,276.02c-1.26,4.85-7.11,26.82-14.49,38.76-1.92,3.11-4.27,6.07-7.97,6.92-3.86.89-7.38-.94-9.02-1.95l31.47-43.73Z" style="fill: #a63be8;"/>
      <path d="M822.43,306.54c.83.37-.34,2.75-.11,8.56.19,4.98,1.17,6.16.11,8.11-.87,1.61-2.78,2.44-6.57,4.06-4.31,1.83-6.96,2.96-7.81,2.03-.5-.55-.48-1.93,4.88-10.44,4.35-6.91,8.14-12.92,9.5-12.32Z" style="fill: #a63be8;"/>
      <path d="M860.84,267.04c-4.07,4.75-9.07,11.16-14.08,19.23-7.6,12.23-7.63,16.01-7.36,18.17,1.17,9.44,11.5,17.1,15.62,15.32,3.19-1.38,2.4-8.31,5.86-9.16,1.67-.41,3.41.83,4.51,1.8-1.6-5.63-3.07-12.24-3.98-19.71-1.2-9.81-1.11-18.51-.56-25.65Z" style="fill: #a63be8;"/>
      <path d="M877.67,310.09c6.47,1.95,7.86,18.18,4.21,20.05-2.44,1.25-7.39-3.77-9.54-6.61-1.92-2.54-4.38-5.79-3.23-9.01,1.15-3.22,5.54-5.34,8.56-4.43Z" style="fill: #a63be8;"/>
      <path d="M862.73,272.01c-1,.06-1.69,8.32-1.13,16.15.56,7.86,2.61,18.37,4.73,18.34,1.19-.02,2.26-3.35,2.48-5.88.34-3.79-1.3-4.81-2.56-10.32-1.01-4.42-.23-4.96-1.43-11.15-.58-3-1.39-7.17-2.1-7.13Z" style="fill: #a63be8;"/>
      <path d="M867.01,277.79c1.18-.27,4.32,5.99,5.11,12.32.33,2.66-.04,2.99.38,5.86.95,6.52,3.7,10.32,3.38,10.53-.16.11-4.29-3.97-7.06-11.13-3.16-8.2-3.15-17.26-1.81-17.57Z" style="fill: #a63be8;"/>
      <path d="M889.87,315.95c1.46.65.82,3.01,2.07,6.76,1.65,4.95,4.85,7.09,4.36,7.63-.52.57-4.26-1.58-7.1-4.7-1.64-1.8-4.59-5.05-3.49-7.57.69-1.57,2.87-2.69,4.17-2.12Z" style="fill: #a63be8;"/>
      <path d="M853.78,242.65c-2.55-1.89-5.46-4.34-8.39-7.45-3.47-3.68-6.04-7.29-7.9-10.35-8.92-2.38-24.63-8.14-36.95-22.68-12.05-14.22-14.24-29.02-17.18-48.99-2.7-18.3-5.04-34.15,3.21-39.94,6.75-4.73,17.42-.49,31.04,4.94,9.05,3.6,19.83,7.9,29.35,17.89,17.04,17.89,13.02,36.22,24.63,39.05,7.58,1.85,16.94-4.09,21.03-10.81,3.18-5.23,3.01-10.65,2.85-14.12-1.47-32.46-8.67-42.96-3.76-50.17,8.11-11.9,44.02-7.18,48.37,5.41,3.49,10.13-14.23,23.07-13.52,43.41.1,2.77.57,6.81,3.45,9.91,3.98,4.29,10.77,4.88,15.62,3.6,4.22-1.11,6.87-3.6,7.81-4.51.71-.68,3.74-3.72,5.41-9.31,4.45-14.96-3.97-37.89,2.87-45.04,8.52-8.91,43.66,3.6,45.04,17.86,1.2,12.45-23.25,27.38-19.53,37.85.59,1.66,2.35,4.5,2.1,8.71-.2,3.42-1.57,5.25-.75,8.41.45,1.74,1.56,3.91,2.72,4.56,5.02,2.83,18.99-18.13,33.93-30.55,26.36-21.91,67.37-26.88,75.39-15.27,2.35,3.4-1.86,14.17-10.37,35.56-13.16,33.07-18.94,40.61-25.07,46.39-9.78,9.25-19.17,12.86-21.54,13.72-7.34,2.68-13.86,3.39-18.27,3.55-1.5,3.1-3.25,7.9-3.17,13.88.02,1.32.04,2.46.36,3.92,1.74,8.03,9.49,12.14,9.01,12.84-.58.84-10.71-6.65-13.74-4.06-.96.82-.3,1.88-1.03,4.32-1.34,4.46-4.9,5.41-7.95,9.21-3.1,3.84-1.39,5.29-4.06,10.54-4.33,8.53-10.26,7.56-13.8,14.98-2.43,5.08-.4,7.11-1.65,14.12-.93,5.17-3.49,12.23-10.85,20.05,2.25,4.45,13.9,28.33,5.51,49.05-.97,2.4-3.04,7.37-7.69,12.27-8.02,8.46-17.97,10.63-23.26,11.79-6.64,1.45-10.47,2.04-15.34.75-7.34-1.95-11.4-8.11-16.15-15.58-3.82-6.02-8.99-15.87-11.79-29.63-6.39-2.54-16.59-7.57-25.91-17.38-12.43-13.09-16.58-27.63-18.73-35.51-1.73-6.33-5.59-20.46-4.93-36.55.16-3.89.77-12.35-2.7-22.4-1.24-3.59-2.67-6.41-3.72-8.28Z" style="fill: none;"/>
    </g>
    <g id="Moai">
      <path d="M760.31,501.36c-12.38,3.52-30.77,7.11-52.43,4.77-30.99-3.36-38.84-15.63-82.38-35.4-58.66-26.63-81.63-21.25-96.34-46.64-1.3-2.23-12.95-23-7.15-45.28,4.23-16.24,18.37-35.71,34.72-49.02,7.78-6.33,17.03-12.07,18.04-22.13.56-5.52-1.98-6.3-3.74-15.66-2.26-11.93.72-16.72.77-31.83.02-5.36-.33-13.14-2.13-22.64-5,.27-13.58-.07-18.38-5.79-2.11-2.52-2.75-5.2-2.99-6.22-7.94-35.05-9.01-70.56-9.01-70.56-1.04-34.63-9-95.4-6.53-104.64.12-.44.74-2.56.83-5.47.14-4.44-1.11-6-1.36-8.85-.63-7.01,5.23-16.04,11.72-17.64,1.97-.48,3.78-.23,5.3-1.77,1.99-2.01,1.44-5,1.65-6.32,1.13-6.99,31.76-15.16,64.73-6.62,8.42,2.18,32.39,9.44,52.89,31.04,6.94,7.31,11.8,16.11,19.28,28.53,8.32,13.82,9.35,17.95,9.76,19.83,2.92,13.51-5.84,23.6-5.62,34.68.16,7.94,4.74,5.28,15.57,26.94,7.05,14.09,5.57,16.15,11.62,24.51,7.02,9.72,11.48,10.35,13.27,17.62,1.76,7.17-2.14,8.34-2.5,20.77-.33,11.23,2.85,10.58,2.43,22.72-.26,7.54-1.61,11.15.77,16.47,1.39,3.12,3.03,4.52,3.73,8.13.97,4.99-.83,9.13-1.36,10.55-3.36,8.97,1.67,22.09,12.52,64.6.77,3.02,2.58,8.48,0,13.28-2.34,4.35-7.64,7.07-12.06,7.97-5.09,1.03-6.43-.94-9.31.63-4.68,2.54-5.7,10.17-5.16,15.24.66,6.24,3.9,10.61,4.6,11.57,4.81,6.66,10.2,27.27,20.99,68.5,3.75,14.35,8.35,32.65,13.28,54.13Z" style="fill: #f9e7fe;"/>
      <path d="M571.62,88.22c-2.63-10.92,41.96-49.24,86.47-37.62,15.54,4.06,27.12,13.19,35.39,22.62,3.19,6.09,3.79,8.52,4.07,9.84,2.92,13.51-5.84,23.6-5.62,34.68.12,5.87,2.66,5.96,8.37,14.38-6.87.42-15.75-.27-22.01-6.03-3.62-3.34-4.12-6.3-7.9-15.29-7.36-17.54-11.04-26.31-17.62-28.34-6.88-2.13-15.57,2.5-20.04,7.91-6.44,7.79-2.75,15.52-7.79,18.38-5,2.85-11.23-3.28-26.44-10.15-19.19-8.67-25.92-6.32-26.89-10.38Z" style="fill: #cb6be6;"/>
      <path d="M728.6,249.46c-3.01-2.51-10.92-8.39-22.72-9.7-13.69-1.53-23.87,4.07-27.06,6,7.84,1.67,16.97,3.08,27.19,3.71,8.26.51,15.84.41,22.6,0Z" style="fill: #cb6be6;"/>
      <path d="M556.73,329.79c7.78-6.33,17.03-12.07,18.04-22.13.51-5.1-1.61-6.17-3.33-13.68,17.71,17.05,56.23,48.89,112.51,56.83,15.75,2.22,30.15,2.19,42.65,1.1-4.68,2.54-5.7,10.17-5.16,15.24.66,6.24,3.9,10.61,4.6,11.57,4.81,6.66,10.2,27.27,20.99,68.5,3.75,14.35,8.35,32.65,13.28,54.13-12.38,3.52-30.77,7.11-52.43,4.77-30.99-3.36-38.84-15.63-82.38-35.4-58.66-26.63-81.63-21.25-96.34-46.64-1.3-2.23-12.95-23-7.15-45.28,4.23-16.24,18.37-35.71,34.72-49.02Z" style="fill: none;"/>
      <path d="M731.96,195.16h0c-2.02,4.35-6.72,12.94-16.3,19.83-4,2.87-13.31,9.38-26.55,9.19-4.05-.06-18.23-.88-27.23-11.4-2.23-2.61-3.56-5.13-4.44-7.1,12.51-13.74,23.23-17.28,30.92-17.83,6.78-.48,11.65,1.33,24.17,1.04,8.41-.19,15.29-1.22,19.87-2.08.88,3.56.35,5.64-.44,8.35Z" style="fill: #cb6be6;"/>
      <path d="M593.37,312.61c20.93,15.62,51.47,32.69,90.59,38.21,15.75,2.22,30.15,2.19,42.65,1.1-4.68,2.54-5.7,10.17-5.16,15.24.66,6.24,3.9,10.61,4.6,11.57,4.81,6.66,10.2,27.27,20.99,68.5,3.75,14.35,8.35,32.65,13.28,54.13-5.36-3.29-13.48-8.63-22.53-16.19-23.62-19.73-31.59-36.14-53.18-64.04-14.2-18.35-12.66-13.71-41.8-47.79-21.79-25.49-38.66-46.8-49.43-60.73Z" style="fill: #cb6be6;"/>
    </g>
    <g id="Chèvre">
      <path d="M.21,135.05c1.05-2.16,5.76-1.68,7.95-1.7,10.68-.13,18.6-13.1,28.08-25.25,0,0,8.72-11.17,24.4-26.31,6.5-6.28,39.99-36.79,77.02-28.51,22.84,5.11,37,22.74,43.23,31.99-.52-.04-1.05-.07-1.59-.08-1.74-.02-7.52-.1-12.59,3.4-6.28,4.35-5.12,9.81-12.82,16.12-18.97-17.8-35.75-20.19-43.11-20.57-23.68-1.23-52.54,12.92-69.72,33.83-5.38,6.55-18.07,24.05-29.08,24.95-1.67.14-6.64.54-9.79-2.61-1.31-1.31-2.75-3.68-1.99-5.25Z" style="fill: #cb6be6;"/>
      <path d="M153.89,104.7c-3.66,3-4.19,1.98-7.43,5.05-3.95,3.74-3.89,5.93-8.86,11.7-3.96,4.6-4.45,3.74-5.62,6.12-2.27,4.63.43,6.17-1.29,14.34-.56,2.68-1.36,4.91-.21,7.3.71,1.48,1.87,2.41,2.77,2.98-3.65,27.86-3.64,48.06-2.84,61.77.32,5.44.81,10.71-.48,18.14-2.95,16.98-11.27,22.46-15.11,37.23-1.64,6.33-2.82,15.72,0,28.25h285.12c4.43-16.34,10.01-46.65,0-80.07-5.83-19.46-9.02-13.52-22.8-46,0,0-9.15-21.16-21.06-25.53-6.16-2.26-7.42.22-16.45-1.28-16.25-2.68-18.63-11.75-31.54-14.63-7.8-1.74-16.41,1.22-33.62,7.13-21.56,7.41-34.18,15.68-37.27,12-1.34-1.6-.68-5.23.21-5.48,1.04-.29,2.2,4.09,3.88,3.99,2.32-.14,3.8-8.71,3.83-15,.03-5.51-1.06-7.98-1.4-8.71-1.43-3.04-3.22-4.12-5.67-6.6-2.5-2.51-4.63-6.23-8.9-13.65-6.22-10.82-4.93-10.69-7.32-13.07-5.38-5.35-14.37-8.48-18.94-5.32-1.94,1.34-1.28,2.51-3.09,3.69-4.66,3.04-10.5-3.77-20.5-3.9-1.74-.02-7.52-.1-12.59,3.4-6.28,4.35-5.12,9.81-12.82,16.12Z" style="fill: #f9e7fe;"/>
      <path d="M245.09,131.08s0,0,0,0c-.17-4.36-1.07-6.4-1.37-7.05-1.43-3.04-3.22-4.12-5.67-6.6-2.5-2.51-4.63-6.23-8.9-13.65-6.22-10.82-4.93-10.69-7.32-13.07-5.38-5.35-14.37-8.48-18.94-5.32,3.2-25.37.88-35.18,5.74-37.58,4.53-2.23,11.93,3.66,15.21,7.02,7.24,7.42,7.24,16.12,10,25.53,4.96,16.93,12.84,28.43,16.38,33.51,0,0,12.59,18.05,25.5,22.91,4.95,1.86,6.03,2.12,6.03,2.12,3.75.9,5.64.61,7.38,2.29.24.23,1.94,1.93,1.6,3.83-.31,1.7-2.04,2.65-2.98,3.14-5.37,2.81-12.39.97-16.31-.11-3.05-.84-7.32-2.32-12.1-5.05-2.19-1.17-5.28-3.05-8.53-5.91-3.27-2.87-5.25-5.46-5.69-6.02Z" style="fill: #cb6be6;"/>
      <path d="M130.4,213.97c-.8-13.71-.82-33.91,2.84-61.77,1.6-1.24,2.54-3.29,3.19-4.72,1.96-4.3,1.53-7.52,2.41-7.62.85-.1,1.29,2.91,3.81,6.4,1.91,2.65,3.93,4.05,4.45,4.49,6.4,5.26.46,35.53,8.21,54.55,5.53,13.56,18.08,20,43.19,32.87,9.41,4.82,13.58,3.39,14.69,2.93.9-.37,1.82-.95,3.39-1.05.34-.02.65-.01.96.02-1.41,15.1-6.29,23.96-10.62,29.31-2.94,3.63-7.51,7.97-11.21,16.03-2.24,4.89-3.29,9.26-3.83,12.19h-47.94c-2.84-6-6.61-14.98-9.5-26.3-4.77-18.67-4.55-33.49-4.52-39.18,1.29-7.43.8-12.7.48-18.14Z" style="fill: #f9e7fe;"/>
      <path d="M155.84,297.59h-41.03c-2.82-12.53-1.64-21.92,0-28.25,3.84-14.77,12.16-20.25,15.11-37.23,1.29-7.43.8-12.7.48-18.14-.8-13.71-.82-33.91,2.84-61.77-.89-.56-2.06-1.5-2.77-2.98-1.15-2.39-.35-4.62.21-7.3.67-3.16.67-5.32.56-7.06,3.76.66,7.69,1.56,11.76,2.77,20.58,6.12,34.45,17.07,41.54,23.56,17.01,40.63,12.56,60.34,4.76,70.83-11.28,15.19-32.45,14.92-38.93,32.15-4.45,11.83.72,24.73,5.46,33.43Z" style="fill: #cb6be6;"/>
      <path d="M232.7,242.94c-2.15.5-4.73,1.11-7.7.22-3.42-1.02-5.04-3.32-8.41-3.11-1.57.1-2.48.67-3.39,1.05-1.11.46-5.28,1.89-14.69-2.93-25.11-12.87-37.66-19.31-43.19-32.87-7.75-19.02-1.82-49.28-8.21-54.55-.53-.43-2.54-1.84-4.45-4.49-2.53-3.49-2.96-6.5-3.81-6.4-.88.11-.45,3.32-2.41,7.62-.65,1.42-1.59,3.48-3.19,4.72-.89-.56-2.06-1.5-2.77-2.98-1.15-2.39-.35-4.62.21-7.3,1.72-8.17-.97-9.72,1.29-14.34,1.17-2.38,1.66-1.52,5.62-6.12,4.97-5.77,4.92-7.96,8.87-11.7,3.24-3.07,3.77-2.06,7.43-5.05,7.7-6.31,6.53-11.77,12.82-16.12,5.07-3.51,10.84-3.43,12.59-3.4,10,.14,15.83,6.94,20.5,3.9,1.81-1.18,1.15-2.35,3.09-3.69,4.57-3.16,13.56-.03,18.94,5.32,2.39,2.38,1.1,2.25,7.32,13.07,4.27,7.43,6.4,11.14,8.9,13.65,2.46,2.48,4.25,3.56,5.67,6.6.34.73,1.43,3.2,1.4,8.71-.03,6.29-1.51,14.86-3.83,15-1.68.1-2.84-4.28-3.88-3.99-.89.25-1.56,3.88-.21,5.48,4.24,23.19,7.14,32.06,9.12,35.4.21.36,1.17,1.93,2.2,4.18.76,1.67,2.49,5.25,3.09,9.68,1.73,12.89-3.51,25.53-3.51,25.53-2.65,6.41-7.03,16.97-15.38,18.93Z" style="fill: #f9e7fe;"/>
      <g>
        <path d="M171.55,135.45c-.4-2.49-3.31-4.13-5.85-4.04-2.72.09-5.82,2.19-5.77,5.08.05,2.79,3.01,4.85,5.66,4.87,3.24.02,6.42-2.98,5.96-5.9Z"/>
        <path d="M168.39,135.2c.31.28.43.81.27,1.18-.25.55-1.04.44-2.98.76-2.15.35-2.83.75-3.33.28-.36-.34-.49-1-.25-1.4.36-.6,1.27-.21,3.25-.5,1.78-.26,2.52-.78,3.04-.31Z" style="fill: #4605fa;"/>
      </g>
      <path d="M240.36,217.39c-2.99.72-5.75-1.6-9.01-4.33-3.02-2.54-8.39-7.03-7.91-13.26.07-.94.27-3.46,2.07-5.43,5.03-5.47,19.02-2.75,21.97,4.31,1.15,2.75.37,5.56-.53,8.78-.83,2.96-2.5,8.95-6.6,9.93Z" style="fill: #cb6be6;"/>
      <path d="M203.55,212.07c3.31,6.43,7.39,10.44,10,12.62,4.08,3.42,9.1,7.63,15.96,7.3,4.21-.2,7.44-2.03,9.22-3.26l1.63-11.35" style="fill: none; stroke: #cb6be6; stroke-miterlimit: 10; stroke-width: .75px;"/>
      <path d="M238.73,228.74c.58.28,2.19.96,4.26.64,1.79-.28,2.99-1.17,3.49-1.59" style="fill: none; stroke: #cb6be6; stroke-miterlimit: 10; stroke-width: .75px;"/>
      <path d="M241.43,147.71l-.48.03c-1.49-.43-2.56-4.15-3.52-3.95-.16-.86-.35-2.11-.48-3.62-.16-1.96-.23-3.09.1-4.53.22-.95.93-3.36,1.61-3.35.73,0,1.71,2.86,2.77,15.41Z" style="fill: #cb6be6;"/>
      <g>
        <path d="M236.8,127.23c.97-.01,2.12,2.51,1.89,4.79-.2,1.94-1.44,4.03-2.37,3.91-.97-.12-1.54-2.67-1.38-4.63.14-1.74.93-4.06,1.86-4.07Z"/>
        <path d="M238.05,130.68c-.15-.06-.41.64-.96.66-.64.03-1-.92-1.27-.81-.25.1-.27,1.02.19,1.63.23.31.39.28.61.55.6.74.13,1.91.24,1.94.2.06,1.54-3.83,1.18-3.98Z" style="fill: #4605fa;"/>
      </g>
      <path d="M147.45,127.68c.98-1.44,1.45-3.11,1.6-3.62.66-2.37.46-4.08.78-4.11.26-.03.69,1.03,1.13,3.1,1.36,6.37-.13,8.72.71,13.27.92,5.02,3.27,5.11,3.33,8.74.07,4.2-3.02,7.67-5.67,9.97h0c-.59-.82-1.49-2.03-2.64-3.44-2.11-2.58-3.12-3.43-4.28-4.9-1.13-1.43-2.53-3.62-3.56-6.82.54-4.98,2.29-7.28,3.83-8.46,1.57-1.2,3.3-1.52,4.79-3.72Z" style="fill: #cb6be6;"/>
      <path d="M362.71,162.95c3.18,5.84-8.38,12.22-12.34,26.81-6.61,24.35,13.97,49.37,11.91,50.52-1.22.68-7.34-8.68-13.47-17.05-23.54-32.11-39.06-38.4-36.31-48.51,2.61-9.6,19.08-12.97,25.67-14.33,2.38-.49,20.82-4.27,24.54,2.55Z" style="fill: #cb6be6;"/>
      <path d="M373.42,217.52c-2.79.62-2.35,12.26-1.82,26.72.43,11.86,1.07,30.1,1.82,53.35h26.52c2.78-8.31,5.14-18.53,5.6-30.29.11-2.9.1-5.68,0-8.35-6.28-5.54-14.2-13.68-21.25-24.94-5.98-9.55-8.61-17-10.87-16.49Z" style="fill: #cb6be6;"/>
      <path d="M154.78,143.43c1.91,6.16,15.24,48.28,36.13,72.79,4.13,4.85,10.78,12.51,22.06,18.76,8.2,4.54,15.75,6.62,20.75,7.65-4.1,1.62-6.94,1.33-8.78.77-3.24-1-4.94-3.33-8.41-3.11-1.57.1-2.48.67-3.39,1.05-1.11.46-5.28,1.89-14.69-2.93-25.11-12.87-37.66-19.31-43.19-32.87-1.74-4.27-21.34-34.99-8.21-54.55,2.45-3.66,5.45-6.05,7.73-7.55Z" style="fill: #cb6be6;"/>
    </g>
    <g id="Corbeau">
      <path d="M257.73,359.56h325.37c1.87-1.01,4.31-2.63,6.35-5.27,8.89-11.42,1.47-29.96,4.87-31.14,2.3-.8,5.77,7.66,8.26,6.99,3.36-.9,3.67-18-1.06-35.59-5.92-22.01-13.63-22.15-14.4-37.92-.66-13.49,4.76-18.15.64-29.87-2.45-6.96-5.44-8.38-8.18-17.36-2.47-8.1-2.04-13.49-2.41-19.71-.86-14.45-5.59-25.36-9.11-33.47-3.64-8.39-11.97-21.62-33.68-43.42-8.81-8.85-13.32-11.82-18.43-13.77-10.35-3.95-13.08.09-31.14-3.18-10.88-1.97-14.95-4.36-21.61-2.12-5.97,2.01-6.65,5.25-11.86,8.76-13.54,9.1-24.9-2.05-39.12,4.52-15.43,7.12-22.33,29.6-19.35,32.06.9.74,2.32-.64,4.73-.95,11.79-1.5,24.09,24.93,25.13,27.21.52,1.14,12,27.12,7.41,55.08-2.19,13.35-11.11,36.03-89.39,88.97-20.52,13.88-48.45,31.59-83.04,50.18Z" style="fill: #f9e7fe;"/>
      <path d="M566.69,186.24c-2.6,5.47-11.92,8.29-18.85,10.38-7.7,2.32-11.26,1.58-14.4,5.08-3.58,3.99-4.1,10.68-2.12,15.6.6,1.49,2.16,4.63,15.82,12.71,8.91,5.27,10.52,5.27,15.25,8.47,3.17,2.14,7.77,5.74,15.39,15.39,5.74,7.27,14.21,19.25,22.57,36.63-5.71-18.05-12.5-19.14-13.22-33.88-.66-13.49,4.76-18.15.64-29.87-2.45-6.96-5.44-8.38-8.18-17.36-2.47-8.1-2.04-13.49-2.41-19.71-.86-14.45-5.59-25.36-9.11-33.47-3.64-8.39-11.97-21.62-33.68-43.42,1.47,7.91,4.56,20.36,11.77,34.03,10.99,20.84,24.48,31.1,20.55,39.4Z" style="fill: #cb6be6;"/>
      <path d="M430.91,214.34c2.3,3.26,5.43,8.23,8.05,14.73,6.18,15.3,4.8,27.2,6.92,27.37,2.77.22,6.92-19.97,8.47-27.51,3.66-17.81,2.63-20.35,6.32-24.89,4.46-5.48,7.05-3.11,23.72-12.92,10.54-6.2,14.2-9.91,16.81-13.84,1.39-2.09,5.33-8.01,4.97-12.77-.78-10.45-22.66-20.19-53.94-22.78-11.86,4.1-23.73,8.21-35.59,12.31.32.53.64,1.05.96,1.58.81,1.33,1.71,2.89,2.64,4.66.86,1.62,1.69,3.31,2.49,5.07,8.43,18.57,9.12,36.47,8.17,48.99Z" style="fill: #cb6be6;"/>
      <path d="M438.26,321.29c2.13-3.66,1.9-9.96,1.06-13.98-1.26-6.04-3.93-7.02-5.93-12.71-3.79-10.75,1.55-19.02-.85-20.34-4.3-2.36-22.23,23.63-24.36,22.24-1.64-1.07,7.33-17.45,5.72-18.43-1.13-.68-5.75,7.19-8.35,6.35-2.17-.7-2.77-7.4,0-25.51h0c-13.12,12.85-33.36,29.22-64.78,50.47-20.52,13.88-48.45,31.59-83.04,50.18h19.33c11.01-2.38,27.71-6.47,47.52-13.35,37.52-13.03,40.05-20.02,60.79-22.03,26.71-2.59,47.38,6.59,52.89-2.9Z" style="fill: #cb6be6;"/>
      <path d="M589.45,354.3c8.89-11.42,1.47-29.96,4.87-31.14,2.3-.8,5.77,7.66,8.26,6.99,3.36-.9,3.67-18-1.06-35.59-9.35-18.1-12.8-21.3-14.21-20.79-1.66.6-.18,6.23-2.75,7.63-4.08,2.21-12.73-9.25-15.25-7.63-1.98,1.28,2.04,9.21,4.52,19.91,3.17,13.68,3.07,28.71.42,29.37-4.25,1.06-14.99-34.78-18.71-33.82-4.36,1.13,5.84,51.57,1.62,52.6-3.07.75-11.12-25.35-14.97-24.43-3.79.9-.44,27.24-3.6,27.75-1.82.29-4.27-8.24-6.14-7.84-1.96.42-.89,10.13-2.28,10.38-1.98.35-5.73-19.06-8.31-18.85-1.57.12-2.87,7.49-3.18,30.72h64.41c1.87-1.01,4.31-2.63,6.35-5.27Z" style="fill: #cb6be6;"/>
      <path d="M392.87,139.08c.9.74,2.32-.64,4.73-.95,6.98-.89,14.14,8.02,19.04,15.9h0c4.57,2.41,11.54,5.36,20.33,6.24,9.87.99,11.27-1.72,19.35-.71,14.16,1.78,15.64,10.82,28.95,12.14,7.67.76,18.58-1.1,20.9-7.2,2.66-6.99-7.18-16.34-9.46-18.5-2.64-2.5-6.55-5.54-17.09-9.89-19.44-8.02-25.87-5.85-33.47-12.71-3.06-2.76-7.18-7.78-9.43-17.21h0c-7.87-.47-15.63-3.28-24.51.82-15.43,7.12-22.33,29.6-19.35,32.06Z" style="fill: #a63be8;"/>
      <path d="M397.61,138.13c3.31-2.68,8.38-5.94,15.01-6.81,3.98-.53,5.09.26,14.4,1.09,12.9,1.15,12.65-.2,19.06,1.17,5.46,1.17,5.03,2.01,16.52,5.47,6.14,1.85,6.9,1.8,11.02,3.14,6.17,2.01,11.5,4.41,15.96,6.78" style="fill: none; stroke: #000; stroke-miterlimit: 10;"/>
      <path d="M479.63,136.12c-.36-2.48-.42-5.96,1.48-8.97,2.02-3.19,4.66-3.31,5.08-5.62.81-4.4-7.83-9.15-8.19-9.35-5.06-2.73-10.1-2.8-13.13-2.54,4.35-1.8,13.09-4.63,23.44-2.54,4.45.9,11.61,2.34,16.41,8.61,2.35,3.08,3.32,6.25,3.76,8.31,8.35,4.49,15.05,6.31,19.79,7.12,2.53.43,6.37.9,8.19,3.78,1.7,2.7,1.14,6.69,0,7.05-1.13.35-2.2-3.04-3.95-2.93-2.5.16-1.81,7.12-6.12,10.84-3.58,3.08-8.79,2.37-15.76,1.41-5.76-.79-11.3-2.86-13.91-5.3-.23-.22-1.02-.97-2.2-1.91-1.08-.86-2.48-1.86-4.73-3.14-4.04-2.3-8.42-4.13-10.16-4.84Z"/>
      <path d="M513.26,121.67c-4.33.77-7.95,4.7-8.47,9.21-.73,6.26,4.62,12.53,11.12,12.39,5.16-.11,9.67-4.22,10.38-9,1.04-6.97-6.23-13.81-13.03-12.6Z"/>
      <path d="M512.84,125.17c-2.41.82-4.18,3.39-4.34,6.04-.24,3.87,2.96,7.63,7.06,7.84,3.71.19,7.09-2.58,7.56-5.61.72-4.72-5.65-9.83-10.27-8.26Z" style="fill: #4605fa;"/>
      <path d="M510.93,129.56c.8,2.49,3.23,4.66,4.62,4.18,1.25-.43.86-2.72,2-3.12.8-.29,2.26.41,5.08,4.31.23-.49.4-.99.48-1.5.72-4.72-5.65-9.83-10.27-8.26-.58.2-1.11.5-1.6.87l-.24.2c-.1.08-.19.17-.28.26-.11.7-.18,1.82.22,3.07Z" style="fill: #fff;"/>
    </g>
    <g id="Baleine">
      <path d="M530.25,456.07c-2.94-2.03-14.18-9.77-13.02-17.62.48-3.27,2.2-5.72,5.36-9.7,3.63-4.58,6.61-6.47,12.85-11.4,11.87-9.38,10.16-9.7,13.62-11.22,8.04-3.55,17.94-2.14,24.85,1.69,10.2,5.65,9.47,15.28,16.34,22.21,11.76,11.87,26.86,10.41,47.42,10.36-16.62-65-80.33-100.36-113.67-118.87-21.03-11.67-45.24-21.46-77.19-34.38-16.07-6.5-23.81-9.2-33.87-11.4-9.12-1.99-25.89-2.89-59.06-4.6-8.89-.46-12.59-.61-17.87.34-4.45.8-6.37,1.73-10.13,1.45-5.98-.46-8.76-3.39-13.18-5.53-4.32-2.09-4.85-.84-26.9-.85-13.73,0-18.33-.49-24.77,2.55-3.59,1.7-3.38,2.43-6.89,3.83-3.44,1.37-7.13,2.06-21.62,1.11-20.11-1.32-15.85-.37-19.29-1.31-1.72-.47-6.3-1.86-8.61.35-.57.55-.87,1.18-1.03,1.64-5.8-.19-10.47-.02-13.62.17-9.89.58-11.28,1.69-15.06.38-1.36-.47-3.44-1.39-5.74-.64-1.87.61-2.39,1.84-3.7,2.95-3.67,3.12-7.18-.09-14.56,1.64-5.85,1.37-7.73,4.35-10.66,3.02-2.43-1.1-2.85-3.92-4.82-3.95-1.55-.03-2.88,1.67-3.83,3.32-13.17.76-23.84,2.66-31.4,4.34-23.05,5.13-24.19,9.84-24.26,11.23-.12,2.59,3.06,4.13,2.3,6.13-.88,2.31-5.58,1.37-12.26,2.81-10.75,2.32-17.02,8.57-17.11,11.23-.04,1.43.17,3.23.17,3.23.05.42.1.76.15,1.04,0,0,0,0,0,0,0,0,.1.62.23,1.26.1.49,1.75,6.6,2.92,8.93,2.75,5.46,9.44,3.01,15.17,9.03,2.98,3.13,2.38,5.06,3.65,8.19.64,1.57,1.34,2.6,2.48,4.11,3.33,4.45,8.63,9.19,10.21,10.68,4.5,4.23,10.36,11.69,13.28,20.68,1.58,4.88,1.65,7.94,4.34,9.45,2.83,1.58,4.68-1.11,10.47-1.02,6.04.09,6.54,3.06,13.53,3.57,4.99.37,4.99-1.13,9.96-.51,5.47.68,6.01,2.55,10.21,2.3,4.18-.26,4.93-2.2,8.68-1.79,3.02.33,3.72,1.72,6.64,2.55,5.15,1.47,9.89-.88,10.98-1.28,5-1.84,23.74,4.13,79.66,34.54,19.95,11.18,36.9,21.3,50.3,29.55,18.17,11.18,34.11,21,54.64,35.49,14.27,10.07,16.13,12.09,33.45,24.26.43.31.9.63,1.37.96l40.17,26.84c17.7,10.71,48.65,28.46,89.18,30.24,16.56.73,47.13,2.07,76.09-17.87,22.65-15.59,33.14-36.51,37.28-46.47,3.04-7.31,5.05-14.48,6.32-21.34-38.57-15.88-57.86-23.82-75.3-25.89-5.32-.63-20.51-2.15-34.81-12Z" style="fill: #a63be8;"/>
      <path d="M634.57,513.99c1.82-8.18-28.53-21.66-39.31-26.45-19.43-8.63-29.14-12.94-41.53-14.98-20.84-3.43-29.26,1.17-43.02-6.64-5.63-3.19-5.64-4.77-18.34-16.68-11.54-10.83-21.1-19.8-30.93-26.17-23.99-15.55-31.22-3.71-51.62-17.92-17.15-11.95-20.11-25.94-35.91-27.57-6.88-.71-8.78,1.68-17.39,2.89-18.88,2.66-27.99-6.29-48.32-12.26-30.65-9-31.07,5.14-68.85-3.23-10.63-2.35-23.8-6.44-37.79-1.02-4.7,1.82-6.71,3.64-13.7,5.7-6.38,1.88-10.39,2.04-25.28,3.83-13.02,1.57-11.51,1.63-14.04,1.79-25.18,1.52-41.6-13.03-47.53-6.72-1.24,1.32-2.99,4.59-2.3,7.66.67,2.99,3.38,4.45,2.81,5.96-.27.73-1.32,1.48-4.65,1.6.06.16.14.41.24.72.78,2.48.81,4,1.05,5.05.05.21.88,3.29,3.27,4.46,1.73.84,3.67.39,6.13-.19,1.9-.44,2.62-.94,4.36-.9.96.02,1.67.22,3.05.6,3.1.86,3.43,1.42,6.19,2.19,2.24.62,3.8.75,4.29.79,4.99.37,4.99-1.13,9.96-.51,5.47.68,6.01,2.55,10.21,2.3,4.18-.26,4.93-2.2,8.68-1.79,3.02.33,3.72,1.72,6.64,2.55,5.15,1.47,9.89-.88,10.98-1.28,5-1.84,23.74,4.13,79.66,34.54,19.95,11.18,36.9,21.3,50.3,29.55,18.17,11.18,34.11,21,54.64,35.49,14.27,10.07,16.13,12.09,33.45,24.26.43.31.9.63,1.37.96l40.17,26.84c7.36,5.47,18.42,12.69,32.99,18.71,23.27,9.62,42.97,11.03,56.13,11.86,14.93.94,26.3,1.66,41.28-2.16,17.39-4.44,29.45-12.4,34.87-16.05,12.38-8.32,19.61-16.59,21.6-18.93,2.87-3.37,7.55-8.87,10.38-15.06,1.02-2.24,4.02-9.4,5.29-12.47.34-.83.52-1.25.53-1.31Z" style="fill: #f9e7fe;"/>
      <path d="M356.51,497.35c-20.52-14.49-36.47-24.31-54.64-35.49-4.01,3.54-10.55,8.32-19.53,10.47-12.24,2.93-16.91-1.92-24.26,2.04-10.48,5.65-4.77,17.57-16.6,27.06-9,7.23-16.27,3.52-24,12.77-4.16,4.98-3.97,8.36-8.43,10.47-7.1,3.37-14.2-2.1-17.11,1.28-1.99,2.32,1.16,5.12,0,11.74-.91,5.15-4.25,11.6-8.94,12.51-2.88.56-4.99-1.23-6.13,0-1.61,1.73,1.54,6.41,0,7.66-1.01.82-2.75-.88-4.09,0-1.7,1.12-.08,4.66-1.79,6.13-1.43,1.23-3.51-.42-5.36,0-5.18,1.17-10.57,18.88-2.55,30.89,4.6,6.89,14.08,12.62,20.68,9.96,5.98-2.41,6.34-10.41,8.94-16.85,8.33-20.68,34.83-12.74,73.79-35.23,27.9-16.11,45.96-32.68,45.96-32.68,2.59-2.37,7.52-7.05,15.32-11.74,10.96-6.6,21.42-9.53,28.72-10.98Z" style="fill: #cb6be6;"/>
      <path d="M590.25,430.03c-6.87-6.94-6.14-16.56-16.34-22.21-6.91-3.83-16.81-5.24-24.85-1.69-3.46,1.53-1.75,1.84-13.62,11.22-6.24,4.93-9.22,6.83-12.85,11.4-3.16,3.98-4.88,6.43-5.36,9.7-1.16,7.85,10.08,15.59,13.02,17.62,14.3,9.85,29.49,11.37,34.81,12,17.44,2.07,36.72,10.01,75.3,25.89,38.24,15.75,36.91,20.95,54.15,22.36,13.54,1.11,38.48-.1,39.83,6.13.28,1.31-.63,2.22,0,3.83,1.5,3.82,8.2,2.52,15.57,4.85,11.78,3.73,12.86,12.83,21.96,13.02,3.83.08,5.08-1.5,9.96-3.32,12.67-4.72,24.95-1.75,32.17,0,13.66,3.31,12.14,7.84,31.14,16.75,14.82,6.95,30.36,11.05,41.12,13.89,12.54,3.31,16,3.14,21.7,7.15,2.83,1.99,6.06,4.89,8.68,3.83,2.74-1.11,3.28-5.92,3.32-7.4.22-8.71-13.68-12.21-33.7-25.79-8.19-5.55-9-7.02-17.19-13.11-18.71-13.91-35.06-21.58-58.21-32.68-61.32-29.4-50.07-25.19-65.53-31.83-44.19-18.97-66.29-28.45-86.04-30.38-32.11-3.14-53.48,4.45-69.02-11.23Z" style="fill: url(#Dégradé_sans_nom_39);"/>
      <path d="M431.5,549.4l-40.17-26.84h0c-14.59-2.86-25.52-1.68-32.9,0-9.5,2.16-18.18,6.27-28.6,2.61-3.97-1.4-7.1-3.54-7.91-2.61-1.35,1.54,4.84,10.27,10.72,15.63,3.27,2.98,14.89,12.63,58.69,13.28,10.04.15,23.8-.15,40.18-2.07h0Z" style="fill: #a63be8;"/>
      <path d="M433.25,371.09c-6.13-15.56-19.13-40.92-45.59-54.22-10.17-5.12-18.9-6.72-29.65-8.46-42.61-6.87-76.99-9.27-94.38-10.55-37.43-2.75-84.58-6.8-115.11-4.81-15.67,1.02-24.75,2.5-24.75,2.5-10.79,1.76-16.73,3.62-29.93,5.54-6.68.97-12.13,1.51-15.53,1.8" style="fill: none; stroke: #000; stroke-miterlimit: 10;"/>
      <g id="Oeil-3" data-name="Oeil">
        <path d="M461.43,364.57c.22-4.54-7.92-9.86-15.57-9.79-9.57.1-15.09,8.59-15.56,9.34.99,2.22,1.97,4.43,2.96,6.65,2.03.8,5.02,1.72,8.69,1.88,8.47.37,19.25-3.31,19.49-8.09Z" style="stroke: #000; stroke-miterlimit: 10; stroke-width: .25px;"/>
        <path d="M446.15,358.2c-4.45-.05-9.04,3.64-8.6,6.43.36,2.25,3.94,3.61,6.51,3.79,4.47.3,9.56-2.74,9.4-5.62-.13-2.42-3.99-4.56-7.32-4.6Z" style="fill: #4605fa; stroke: #000; stroke-miterlimit: 10; stroke-width: .25px;"/>
        <path d="M447.08,359.57c-1.2.05-2.44,1.1-2.3,2.17.12.97,1.32,1.59,2.3,1.58,1.11,0,2.42-.8,2.43-1.88,0-1.07-1.29-1.92-2.43-1.88Z" style="fill: #fff;"/>
      </g>
      <path d="M96.61,383.79c3.59-.09,4.62-.88,4.89-1.61.56-1.51-2.13-2.94-2.81-5.96-.69-3.07,1.05-6.34,2.3-7.66,5.93-6.31,22.36,8.25,47.53,6.72,2.54-.15,1.03-.22,14.04-1.79,14.89-1.79,18.89-1.95,25.28-3.83,6.99-2.06,9-3.88,13.7-5.7,13.98-5.42,27.16-1.33,37.79,1.02,37.78,8.37,38.2-5.77,68.85,3.23,20.33,5.97,29.44,14.91,48.32,12.26,8.61-1.21,10.51-3.61,17.39-2.89,15.8,1.64,18.77,15.63,35.91,27.57,20.4,14.21,27.64,2.37,51.62,17.92,9.83,6.37,19.39,15.34,30.93,26.17,12.69,11.91,12.71,13.49,18.34,16.68,13.76,7.81,22.18,3.21,43.02,6.64,17.28,2.84,29.51,8.96,41.53,14.98,10.49,5.25,24.57,13.55,39.31,26.45" style="fill: none;"/>
      <g id="Tâches">
        <path d="M350.02,357.07c-.19-.46-.75-.4-3.58-.85-4.44-.7-5.29-1.19-6.28-.49-.99.7-1.48,2.12-1.21,3.26.49,2.06,3.44,2.92,5.49,2.74,3.32-.29,6.08-3.45,5.58-4.66Z" style="stroke: #000; stroke-miterlimit: 10; stroke-width: .25px;"/>
        <path d="M330.02,351.97c-.21-.49-.72-.75-5.53-1.28-5.33-.58-6-.39-6.53.13-1.35,1.32-1.27,4.3,0,5.3.93.73,1.86-.09,5.26.11,2.1.12,2.32.47,3.3.21,2.19-.58,4.08-3.14,3.51-4.47Z" style="stroke: #000; stroke-miterlimit: 10; stroke-width: .25px;"/>
        <path d="M334.53,323.37c-.99-.87-2.39.25-5.62.68-4,.54-5.24-.71-6.98.51-1.66,1.17-2.37,3.61-1.7,4.34.77.85,2.91-1.07,5.45-.02,1.13.47,1.04.98,2.39,1.46,1.01.36,1.96.33,3.82.26,1.87-.07,2.81-.12,3.23-.6.5-.56.4-1.54.17-3.49-.21-1.84-.32-2.76-.77-3.15Z" style="stroke: #000; stroke-miterlimit: 10; stroke-width: .25px;"/>
        <path d="M302.23,338.14c-.67-2.28-5.76-3.1-9.45-1.79-2.48.88-4.36,2.74-4.09,3.4.31.76,3.28-.43,5.02,1.28.59.58.42.87,1.02,1.36,1.26,1.02,3.42.86,4.94,0,1.53-.87,2.99-2.78,2.55-4.26Z" style="stroke: #000; stroke-miterlimit: 10; stroke-width: .25px;"/>
        <path d="M273.72,343.1c.69.36-.18,1.96.77,2.95,1.49,1.56,4.94-1.03,7.06.6,1.13.87,1.63,2.73,1.02,3.69-.81,1.28-3.48.8-8,0-3.38-.6-5.08-.92-5.45-1.9-.8-2.13,3.41-5.94,4.6-5.34Z" style="stroke: #000; stroke-miterlimit: 10; stroke-width: .25px;"/>
        <path d="M255.78,313.88c1.4-.14,1.86,2.1,4.24,2.64,1.84.42,3.03-.59,3.49,0,.52.66-.38,2.69-1.87,3.66-2.64,1.7-7.52.33-8.17-2.21-.42-1.67.95-3.95,2.31-4.09Z" style="stroke: #000; stroke-miterlimit: 10; stroke-width: .25px;"/>
        <path d="M225.21,328.35c.72-.35,1.34-.12,2.64.17,4.2.94,5.62.27,6.04,1.19.46.99-.69,2.79-2.13,3.49-.88.43-1.88.3-3.83,0-2.45-.37-3.67-.56-4.09-1.4-.54-1.11.19-2.88,1.36-3.45Z" style="stroke: #000; stroke-miterlimit: 10; stroke-width: .25px;"/>
        <path d="M184.57,330.29c-3.88.62-6.33-1.35-6.85-.64-.54.73,1.35,3.73,4.21,5.19.42.21,3.75,1.85,7.28.34,2.2-.94,4.53-3.11,4.09-4.38-.47-1.35-3.98-1.48-6.17-1.15-1.33.2-1.31.44-2.55.64Z" style="stroke: #000; stroke-miterlimit: 10; stroke-width: .25px;"/>
        <path d="M164.19,300.6c-.78,1.07.79,4.36,3.45,5.36,1.64.62,3.13.15,3.57,0,2.9-.96,4.92-4.24,4.21-5.36-.52-.83-2.15.17-6.68,0-3.07-.11-4.09-.64-4.55,0Z" style="stroke: #000; stroke-miterlimit: 10; stroke-width: .25px;"/>
        <path d="M155.55,330.99c3.42.49,5.29-1.89,6.45-.94.97.8.65,3.3-.55,4.81-1.38,1.73-3.63,1.81-5.32,1.87-2,.07-6.92-.25-7.53-2.72-.39-1.57,1.02-3.72,2.68-4.17,1.46-.39,2.03.83,4.27,1.15Z" style="stroke: #000; stroke-miterlimit: 10; stroke-width: .25px;"/>
        <path d="M114.17,330.33c2.17-.71,2.66-1.95,3.45-1.66,1.09.4,1.72,3.36.38,5.3-1.26,1.82-4.07,2.48-5.87,1.28-1.49-.99-2.23-3.22-1.53-4.15.54-.73,1.54-.1,3.57-.77Z" style="stroke: #000; stroke-miterlimit: 10; stroke-width: .25px;"/>
        <path d="M90.27,337.77c-1.29.34-2.1-1.93-4.72-2.17-1.72-.16-2.61.71-3.02.25-.63-.7.59-3.68,2.98-4.8,1.8-.84,4.83-.88,6.09,1.19,1.26,2.08.05,5.18-1.32,5.54Z" style="stroke: #000; stroke-miterlimit: 10; stroke-width: .25px;"/>
        <path d="M91.12,307.13c-3.81,1.09-7.69,2.2-7.53,3.28.14.91,3.1,1.12,4.38,1.21,2.15.15,4.87.35,5.87-1.23.63-1,.52-2.63-.3-3.26-.64-.48-1.55-.25-2.43,0Z" style="stroke: #000; stroke-miterlimit: 10; stroke-width: .25px;"/>
        <path d="M69.55,313.22c-.57-.07-.59,3.29-2.64,4.21-1.64.74-2.99-.81-4.21,0-1.31.87-1.55,3.85-.3,4.77,1.18.86,3.26-.41,4.13-.94.62-.38,2.63-1.64,3.32-4.13.52-1.87.13-3.86-.3-3.91Z" style="stroke: #000; stroke-miterlimit: 10; stroke-width: .25px;"/>
        <path d="M57.89,321.52c-1.85.51-3.63,2.2-4.04,4.43-.09.51-.46,2.5.51,3.19,1.33.94,4.84-.75,5.87-3.4.55-1.41.57-3.56-.51-4.21-.57-.35-1.26-.16-1.83,0Z" style="stroke: #000; stroke-miterlimit: 10; stroke-width: .25px;"/>
        <path d="M131.19,283.69c.03-1.02,7.42-2.31,8.04-.85.24.57-.57,1.49-1.19,1.91-1.33.91-3.01.43-4.55,0-1.11-.31-2.31-.65-2.3-1.06Z" style="stroke: #000; stroke-miterlimit: 10; stroke-width: .25px;"/>
        <path d="M168.77,276.77c-1.75.49-3.91,1.09-4,2.04-.1,1.1,2.58,2.51,5.06,2.64,1.37.07,4.13-.17,4.51-1.57.35-1.27-1.37-3.11-3.15-3.45-.7-.13-1.29.02-2.43.34Z" style="stroke: #000; stroke-miterlimit: 10; stroke-width: .25px;"/>
        <path d="M201.96,278.2c-.28-1.01.99-2.58,2.43-3.11,2.08-.76,3.43,1.07,5.62.3,1.84-.65,2.38-2.49,2.77-2.3.52.25.23,3.85-2.09,5.7-2.95,2.36-8.24,1.12-8.72-.6Z" style="stroke: #000; stroke-miterlimit: 10; stroke-width: .25px;"/>
        <path d="M362.97,290.59c-.46-.89,3.19-5.58,6.35-4.44,2.48.9,3.56,5,2.27,6.61-.49.6-1.46,1.04-2.23.8-1-.32-.86-1.52-1.88-2.36-1.66-1.37-4.16.04-4.5-.61Z" style="stroke: #000; stroke-miterlimit: 10; stroke-width: .25px;"/>
        <path d="M330.85,285.23c-1.02-2.39,1.42-6.31,3.45-6.38,1.88-.07,2.62,3.2,5.55,3.45,1.58.13,2.56-.71,2.94-.26.51.63-.7,2.97-2.55,4.21-2.94,1.97-8.24,1.66-9.38-1.02Z" style="stroke: #000; stroke-miterlimit: 10; stroke-width: .25px;"/>
        <path d="M306.02,282c1.15.52.8,1.79,2.09,2.6,1.55.97,3.37-.04,3.66.55.24.5-.85,1.71-2.1,2.46-2.65,1.58-7.05,1.7-8.19-.46-.6-1.13-.18-2.66.51-3.62.96-1.32,2.82-2.09,4.04-1.53Z" style="stroke: #000; stroke-miterlimit: 10; stroke-width: .25px;"/>
        <path d="M307.71,276.62c-.26,1.18,1.7,2.75,3.54,3.16,2.72.61,5.39-1.25,5.27-1.85-.14-.64-3.48-.01-4.4-1.72-.2-.37-.14-.59-.41-.83-.94-.83-3.71,0-3.99,1.24Z" style="stroke: #000; stroke-miterlimit: 10; stroke-width: .25px;"/>
        <path d="M261.66,271.34c0-.44,1.47-.92,4.43-1.87,3.97-1.29,4.29-1.01,4.38-.89.51.64-.59,2.87-2.38,3.83-2.66,1.43-6.42-.15-6.43-1.06Z" style="stroke: #000; stroke-miterlimit: 10; stroke-width: .25px;"/>
        <path d="M258.34,280.27c-.46-.77,1.72-3.58,3.32-3.28.84.16.9,1.07,2.04,1.45,1.36.45,2.32-.49,2.68-.09.56.63-1.03,3.62-2.47,3.53-.61-.04-.67-.6-1.55-1.11-1.82-1.06-3.65.11-4.02-.51Z" style="stroke: #000; stroke-miterlimit: 10; stroke-width: .25px;"/>
        <path d="M253.06,284.23c.29-.49,1.06-.49,1.74-.51,3.87-.13,4.98-1.01,5.4-.38.51.76-.56,2.86-2.3,3.62-1.58.69-3.55.17-4.43-.98-.32-.42-.73-1.23-.43-1.74Z" style="stroke: #000; stroke-miterlimit: 10; stroke-width: .25px;"/>
      </g>
      <path d="M543.62,468.79c.07-.22-1.73-.63-5.78-2.66-6.27-3.14-7.27-4.81-13.09-8.23-7.95-4.68-10.15-3.94-11.44-6.81-1.44-3.2.81-5.23,2.04-11.83,1.12-5.99,1.69-17.23-2.98-19.83-3.67-2.04-7.18,3.13-13.53,1.02-3.39-1.13-3.51-2.98-7.66-4.34-4.11-1.36-6.33-.3-9.53-.6-9.11-.83-16.1-11.62-15.06-12.94,1.13-1.43,11.17,9.17,28.94,11.4,7.79.98,15.95.2,16.09-1.02.1-.88-3.95-1.68-10.38-3.91-7.07-2.46-6.65-3.05-18.47-8.17-12.04-5.21-18.06-7.82-24.43-9.36-3.58-.87-4.94-.96-7.23-2.21-4.89-2.67-8.67-7.69-12.17-12.34-1.34-1.78-1.86-2.16-2.39-2.87-1.89-2.54-2.83-4.55-3.24-4.39-.26.1-.15.99-.12,1.22.73,5.54,5.5,10.63,5.5,10.63,5.08,6.02,9.54,6.31,10.83,11.32.67,2.63-.34,3.39,0,5.87.87,6.36,8.74,10.16,14.19,12.85,31.26,15.43,35.48,20.23,35.57,24.34.07,2.77-1.8,3.12-1.7,6.47.2,7.09,8.76,12.22,14.81,15.74,15.29,8.91,31.04,11.29,31.23,10.64Z" style="stroke: #000; stroke-miterlimit: 10;"/>
    </g>
  </g>
</svg>