<?xml version="1.0" encoding="UTF-8"?>
<svg id="Calque_2" data-name="Calque 2" xmlns="http://www.w3.org/2000/svg" viewBox="0 0 405.62 250.27">
  <g id="Final">
    <g id="Chèvre">
      <path d="M.21,87.73c1.05-2.16,5.76-1.68,7.95-1.7,10.68-.13,18.6-13.1,28.08-25.25,0,0,8.72-11.17,24.4-26.31,6.5-6.28,39.99-36.79,77.02-28.51,22.84,5.11,37,22.74,43.23,31.99-.52-.04-1.05-.07-1.59-.08-1.74-.02-7.52-.1-12.59,3.4-6.28,4.35-5.12,9.81-12.82,16.12-18.97-17.8-35.75-20.19-43.11-20.57-23.68-1.23-52.54,12.92-69.72,33.83-5.38,6.55-18.07,24.05-29.08,24.95-1.67.14-6.64.54-9.79-2.61-1.31-1.31-2.75-3.68-1.99-5.25Z" style="fill: #cb6be6;"/>
      <path d="M153.89,57.38c-3.66,3-4.19,1.98-7.43,5.05-3.95,3.74-3.89,5.93-8.86,11.7-3.96,4.6-4.45,3.74-5.62,6.12-2.27,4.63.43,6.17-1.29,14.34-.56,2.68-1.36,4.91-.21,7.3.71,1.48,1.87,2.41,2.77,2.98-3.65,27.86-3.64,48.06-2.84,61.77.32,5.44.81,10.71-.48,18.14-2.95,16.98-11.27,22.46-15.11,37.23-1.64,6.33-2.82,15.72,0,28.25h285.12c4.43-16.34,10.01-46.65,0-80.07-5.83-19.46-9.02-13.52-22.8-46,0,0-9.15-21.16-21.06-25.53-6.16-2.26-7.42.22-16.45-1.28-16.25-2.68-18.63-11.75-31.54-14.63-7.8-1.74-16.41,1.22-33.62,7.13-21.56,7.41-34.18,15.68-37.27,12-1.34-1.6-.68-5.23.21-5.48,1.04-.29,2.2,4.09,3.88,3.99,2.32-.14,3.8-8.71,3.83-15,.03-5.51-1.06-7.98-1.4-8.71-1.43-3.04-3.22-4.12-5.67-6.6-2.5-2.51-4.63-6.23-8.9-13.65-6.22-10.82-4.93-10.69-7.32-13.07-5.38-5.35-14.37-8.48-18.94-5.32-1.94,1.34-1.28,2.51-3.09,3.69-4.66,3.04-10.5-3.77-20.5-3.9-1.74-.02-7.52-.1-12.59,3.4-6.28,4.35-5.12,9.81-12.82,16.12Z" style="fill: #f9e7fe;"/>
      <path d="M245.09,83.76s0,0,0,0c-.17-4.36-1.07-6.4-1.37-7.05-1.43-3.04-3.22-4.12-5.67-6.6-2.5-2.51-4.63-6.23-8.9-13.65-6.22-10.82-4.93-10.69-7.32-13.07-5.38-5.35-14.37-8.48-18.94-5.32,3.2-25.37.88-35.18,5.74-37.58,4.53-2.23,11.93,3.66,15.21,7.02,7.24,7.42,7.24,16.12,10,25.53,4.96,16.93,12.84,28.43,16.38,33.51,0,0,12.59,18.05,25.5,22.91,4.95,1.86,6.03,2.12,6.03,2.12,3.75.9,5.64.61,7.38,2.29.24.23,1.94,1.93,1.6,3.83-.31,1.7-2.04,2.65-2.98,3.14-5.37,2.81-12.39.97-16.31-.11-3.05-.84-7.32-2.32-12.1-5.05-2.19-1.17-5.28-3.05-8.53-5.91-3.27-2.87-5.25-5.46-5.69-6.02Z" style="fill: #cb6be6;"/>
      <path d="M130.4,166.65c-.8-13.71-.82-33.91,2.84-61.77,1.6-1.24,2.54-3.29,3.19-4.72,1.96-4.3,1.53-7.52,2.41-7.62.85-.1,1.29,2.91,3.81,6.4,1.91,2.65,3.93,4.05,4.45,4.49,6.4,5.26.46,35.53,8.21,54.55,5.53,13.56,18.08,20,43.19,32.87,9.41,4.82,13.58,3.39,14.69,2.93.9-.37,1.82-.95,3.39-1.05.34-.02.65-.01.96.02-1.41,15.1-6.29,23.96-10.62,29.31-2.94,3.63-7.51,7.97-11.21,16.03-2.24,4.89-3.29,9.26-3.83,12.19h-47.94c-2.84-6-6.61-14.98-9.5-26.3-4.77-18.67-4.55-33.49-4.52-39.18,1.29-7.43.8-12.7.48-18.14Z" style="fill: #f9e7fe;"/>
      <path d="M155.84,250.27h-41.03c-2.82-12.53-1.64-21.92,0-28.25,3.84-14.77,12.16-20.25,15.11-37.23,1.29-7.43.8-12.7.48-18.14-.8-13.71-.82-33.91,2.84-61.77-.89-.56-2.06-1.5-2.77-2.98-1.15-2.39-.35-4.62.21-7.3.67-3.16.67-5.32.56-7.06,3.76.66,7.69,1.56,11.76,2.77,20.58,6.12,34.45,17.07,41.54,23.56,17.01,40.63,12.56,60.34,4.76,70.83-11.28,15.19-32.45,14.92-38.93,32.15-4.45,11.83.72,24.73,5.46,33.43Z" style="fill: #cb6be6;"/>
      <path d="M232.7,195.62c-2.15.5-4.73,1.11-7.7.22-3.42-1.02-5.04-3.32-8.41-3.11-1.57.1-2.48.67-3.39,1.05-1.11.46-5.28,1.89-14.69-2.93-25.11-12.87-37.66-19.31-43.19-32.87-7.75-19.02-1.82-49.28-8.21-54.55-.53-.43-2.54-1.84-4.45-4.49-2.53-3.49-2.96-6.5-3.81-6.4-.88.11-.45,3.32-2.41,7.62-.65,1.42-1.59,3.48-3.19,4.72-.89-.56-2.06-1.5-2.77-2.98-1.15-2.39-.35-4.62.21-7.3,1.72-8.17-.97-9.72,1.29-14.34,1.17-2.38,1.66-1.52,5.62-6.12,4.97-5.77,4.92-7.96,8.87-11.7,3.24-3.07,3.77-2.06,7.43-5.05,7.7-6.31,6.53-11.77,12.82-16.12,5.07-3.51,10.84-3.43,12.59-3.4,10,.14,15.83,6.94,20.5,3.9,1.81-1.18,1.15-2.35,3.09-3.69,4.57-3.16,13.56-.03,18.94,5.32,2.39,2.38,1.1,2.25,7.32,13.07,4.27,7.43,6.4,11.14,8.9,13.65,2.46,2.48,4.25,3.56,5.67,6.6.34.73,1.43,3.2,1.4,8.71-.03,6.29-1.51,14.86-3.83,15-1.68.1-2.84-4.28-3.88-3.99-.89.25-1.56,3.88-.21,5.48,4.24,23.19,7.14,32.06,9.12,35.4.21.36,1.17,1.93,2.2,4.18.76,1.67,2.49,5.25,3.09,9.68,1.73,12.89-3.51,25.53-3.51,25.53-2.65,6.41-7.03,16.97-15.38,18.93Z" style="fill: #f9e7fe;"/>
      <g>
        <path d="M171.55,88.12c-.4-2.49-3.31-4.13-5.85-4.04-2.72.09-5.82,2.19-5.77,5.08.05,2.79,3.01,4.85,5.66,4.87,3.24.02,6.42-2.98,5.96-5.9Z"/>
        <path d="M168.39,87.88c.31.28.43.81.27,1.18-.25.55-1.04.44-2.98.76-2.15.35-2.83.75-3.33.28-.36-.34-.49-1-.25-1.4.36-.6,1.27-.21,3.25-.5,1.78-.26,2.52-.78,3.04-.31Z" style="fill: #4605fa;"/>
      </g>
      <path d="M240.36,170.07c-2.99.72-5.75-1.6-9.01-4.33-3.02-2.54-8.39-7.03-7.91-13.26.07-.94.27-3.46,2.07-5.43,5.03-5.47,19.02-2.75,21.97,4.31,1.15,2.75.37,5.56-.53,8.78-.83,2.96-2.5,8.95-6.6,9.93Z" style="fill: #cb6be6;"/>
      <path d="M203.55,164.75c3.31,6.43,7.39,10.44,10,12.62,4.08,3.42,9.1,7.63,15.96,7.3,4.21-.2,7.44-2.03,9.22-3.26l1.63-11.35" style="fill: none; stroke: #cb6be6; stroke-miterlimit: 10; stroke-width: .75px;"/>
      <path d="M238.73,181.42c.58.28,2.19.96,4.26.64,1.79-.28,2.99-1.17,3.49-1.59" style="fill: none; stroke: #cb6be6; stroke-miterlimit: 10; stroke-width: .75px;"/>
      <path d="M241.43,100.39l-.48.03c-1.49-.43-2.56-4.15-3.52-3.95-.16-.86-.35-2.11-.48-3.62-.16-1.96-.23-3.09.1-4.53.22-.95.93-3.36,1.61-3.35.73,0,1.71,2.86,2.77,15.41Z" style="fill: #cb6be6;"/>
      <g>
        <path d="M236.8,79.91c.97-.01,2.12,2.51,1.89,4.79-.2,1.94-1.44,4.03-2.37,3.91-.97-.12-1.54-2.67-1.38-4.63.14-1.74.93-4.06,1.86-4.07Z"/>
        <path d="M238.05,83.36c-.15-.06-.41.64-.96.66-.64.03-1-.92-1.27-.81-.25.1-.27,1.02.19,1.63.23.31.39.28.61.55.6.74.13,1.91.24,1.94.2.06,1.54-3.83,1.18-3.98Z" style="fill: #4605fa;"/>
      </g>
      <path d="M147.45,80.36c.98-1.44,1.45-3.11,1.6-3.62.66-2.37.46-4.08.78-4.11.26-.03.69,1.03,1.13,3.1,1.36,6.37-.13,8.72.71,13.27.92,5.02,3.27,5.11,3.33,8.74.07,4.2-3.02,7.67-5.67,9.97h0c-.59-.82-1.49-2.03-2.64-3.44-2.11-2.58-3.12-3.43-4.28-4.9-1.13-1.43-2.53-3.62-3.56-6.82.54-4.98,2.29-7.28,3.83-8.46,1.57-1.2,3.3-1.52,4.79-3.72Z" style="fill: #cb6be6;"/>
      <path d="M362.71,115.63c3.18,5.84-8.38,12.22-12.34,26.81-6.61,24.35,13.97,49.37,11.91,50.52-1.22.68-7.34-8.68-13.47-17.05-23.54-32.11-39.06-38.4-36.31-48.51,2.61-9.6,19.08-12.97,25.67-14.33,2.38-.49,20.82-4.27,24.54,2.55Z" style="fill: #cb6be6;"/>
      <path d="M373.42,170.2c-2.79.62-2.35,12.26-1.82,26.72.43,11.86,1.07,30.1,1.82,53.35h26.52c2.78-8.31,5.14-18.53,5.6-30.29.11-2.9.1-5.68,0-8.35-6.28-5.54-14.2-13.68-21.25-24.94-5.98-9.55-8.61-17-10.87-16.49Z" style="fill: #cb6be6;"/>
      <path d="M154.78,96.11c1.91,6.16,15.24,48.28,36.13,72.79,4.13,4.85,10.78,12.51,22.06,18.76,8.2,4.54,15.75,6.62,20.75,7.65-4.1,1.62-6.94,1.33-8.78.77-3.24-1-4.94-3.33-8.41-3.11-1.57.1-2.48.67-3.39,1.05-1.11.46-5.28,1.89-14.69-2.93-25.11-12.87-37.66-19.31-43.19-32.87-1.74-4.27-21.34-34.99-8.21-54.55,2.45-3.66,5.45-6.05,7.73-7.55Z" style="fill: #cb6be6;"/>
    </g>
  </g>
</svg>