<?xml version="1.0" encoding="UTF-8"?>
<svg id="Calque_2" data-name="Calque 2" xmlns="http://www.w3.org/2000/svg" viewBox="0 0 347.37 266.72">
  <g id="Final">
    <g id="Corbeau">
      <path d="M0,266.72h325.37c1.87-1.01,4.31-2.63,6.35-5.27,8.89-11.42,1.47-29.96,4.87-31.14,2.3-.8,5.77,7.66,8.26,6.99,3.36-.9,3.67-18-1.06-35.59-5.92-22.01-13.63-22.15-14.4-37.92-.66-13.49,4.76-18.15.64-29.87-2.45-6.96-5.44-8.38-8.18-17.36-2.47-8.1-2.04-13.49-2.41-19.71-.86-14.45-5.59-25.36-9.11-33.47-3.64-8.39-11.97-21.62-33.68-43.42-8.81-8.85-13.32-11.82-18.43-13.77-10.35-3.95-13.08.09-31.14-3.18-10.88-1.97-14.95-4.36-21.61-2.12-5.97,2.01-6.65,5.25-11.86,8.76-13.54,9.1-24.9-2.05-39.12,4.52-15.43,7.12-22.33,29.6-19.35,32.06.9.74,2.32-.64,4.73-.95,11.79-1.5,24.09,24.93,25.13,27.21.52,1.14,12,27.12,7.41,55.08-2.19,13.35-11.11,36.03-89.39,88.97-20.52,13.88-48.45,31.59-83.04,50.18Z" style="fill: #f9e7fe;"/>
      <path d="M308.96,93.4c-2.6,5.47-11.92,8.29-18.85,10.38-7.7,2.32-11.26,1.58-14.4,5.08-3.58,3.99-4.1,10.68-2.12,15.6.6,1.49,2.16,4.63,15.82,12.71,8.91,5.27,10.52,5.27,15.25,8.47,3.17,2.14,7.77,5.74,15.39,15.39,5.74,7.27,14.21,19.25,22.57,36.63-5.71-18.05-12.5-19.14-13.22-33.88-.66-13.49,4.76-18.15.64-29.87-2.45-6.96-5.44-8.38-8.18-17.36-2.47-8.1-2.04-13.49-2.41-19.71-.86-14.45-5.59-25.36-9.11-33.47-3.64-8.39-11.97-21.62-33.68-43.42,1.47,7.91,4.56,20.36,11.77,34.03,10.99,20.84,24.48,31.1,20.55,39.4Z" style="fill: #cb6be6;"/>
      <path d="M173.19,121.5c2.3,3.26,5.43,8.23,8.05,14.73,6.18,15.3,4.8,27.2,6.92,27.37,2.77.22,6.92-19.97,8.47-27.51,3.66-17.81,2.63-20.35,6.32-24.89,4.46-5.48,7.05-3.11,23.72-12.92,10.54-6.2,14.2-9.91,16.81-13.84,1.39-2.09,5.33-8.01,4.97-12.77-.78-10.45-22.66-20.19-53.94-22.78-11.86,4.1-23.73,8.21-35.59,12.31.32.53.64,1.05.96,1.58.81,1.33,1.71,2.89,2.64,4.66.86,1.62,1.69,3.31,2.49,5.07,8.43,18.57,9.12,36.47,8.17,48.99Z" style="fill: #cb6be6;"/>
      <path d="M180.53,228.44c2.13-3.66,1.9-9.96,1.06-13.98-1.26-6.04-3.93-7.02-5.93-12.71-3.79-10.75,1.55-19.02-.85-20.34-4.3-2.36-22.23,23.63-24.36,22.24-1.64-1.07,7.33-17.45,5.72-18.43-1.13-.68-5.75,7.19-8.35,6.35-2.17-.7-2.77-7.4,0-25.51h0c-13.12,12.85-33.36,29.22-64.78,50.47-20.52,13.88-48.45,31.59-83.04,50.18h19.33c11.01-2.38,27.71-6.47,47.52-13.35,37.52-13.03,40.05-20.02,60.79-22.03,26.71-2.59,47.38,6.59,52.89-2.9Z" style="fill: #cb6be6;"/>
      <path d="M331.72,261.45c8.89-11.42,1.47-29.96,4.87-31.14,2.3-.8,5.77,7.66,8.26,6.99,3.36-.9,3.67-18-1.06-35.59-9.35-18.1-12.8-21.3-14.21-20.79-1.66.6-.18,6.23-2.75,7.63-4.08,2.21-12.73-9.25-15.25-7.63-1.98,1.28,2.04,9.21,4.52,19.91,3.17,13.68,3.07,28.71.42,29.37-4.25,1.06-14.99-34.78-18.71-33.82-4.36,1.13,5.84,51.57,1.62,52.6-3.07.75-11.12-25.35-14.97-24.43-3.79.9-.44,27.24-3.6,27.75-1.82.29-4.27-8.24-6.14-7.84-1.96.42-.89,10.13-2.28,10.38-1.98.35-5.73-19.06-8.31-18.85-1.57.12-2.87,7.49-3.18,30.72h64.41c1.87-1.01,4.31-2.63,6.35-5.27Z" style="fill: #cb6be6;"/>
      <path d="M135.15,46.23c.9.74,2.32-.64,4.73-.95,6.98-.89,14.14,8.02,19.04,15.9h0c4.57,2.41,11.54,5.36,20.33,6.24,9.87.99,11.27-1.72,19.35-.71,14.16,1.78,15.64,10.82,28.95,12.14,7.67.76,18.58-1.1,20.9-7.2,2.66-6.99-7.18-16.34-9.46-18.5-2.64-2.5-6.55-5.54-17.09-9.89-19.44-8.02-25.87-5.85-33.47-12.71-3.06-2.76-7.18-7.78-9.43-17.21h0c-7.87-.47-15.63-3.28-24.51.82-15.43,7.12-22.33,29.6-19.35,32.06Z" style="fill: #a63be8;"/>
      <path d="M139.88,45.29c3.31-2.68,8.38-5.94,15.01-6.81,3.98-.53,5.09.26,14.4,1.09,12.9,1.15,12.65-.2,19.06,1.17,5.46,1.17,5.03,2.01,16.52,5.47,6.14,1.85,6.9,1.8,11.02,3.14,6.17,2.01,11.5,4.41,15.96,6.78" style="fill: none; stroke: #000; stroke-miterlimit: 10;"/>
      <path d="M221.9,43.28c-.36-2.48-.42-5.96,1.48-8.97,2.02-3.19,4.66-3.31,5.08-5.62.81-4.4-7.83-9.15-8.19-9.35-5.06-2.73-10.1-2.8-13.13-2.54,4.35-1.8,13.09-4.63,23.44-2.54,4.45.9,11.61,2.34,16.41,8.61,2.35,3.08,3.32,6.25,3.76,8.31,8.35,4.49,15.05,6.31,19.79,7.12,2.53.43,6.37.9,8.19,3.78,1.7,2.7,1.14,6.69,0,7.05-1.13.35-2.2-3.04-3.95-2.93-2.5.16-1.81,7.12-6.12,10.84-3.58,3.08-8.79,2.37-15.76,1.41-5.76-.79-11.3-2.86-13.91-5.3-.23-.22-1.02-.97-2.2-1.91-1.08-.86-2.48-1.86-4.73-3.14-4.04-2.3-8.42-4.13-10.16-4.84Z"/>
      <path d="M255.54,28.83c-4.33.77-7.95,4.7-8.47,9.21-.73,6.26,4.62,12.53,11.12,12.39,5.16-.11,9.67-4.22,10.38-9,1.04-6.97-6.23-13.81-13.03-12.6Z"/>
      <path d="M255.11,32.32c-2.41.82-4.18,3.39-4.34,6.04-.24,3.87,2.96,7.63,7.06,7.84,3.71.19,7.09-2.58,7.56-5.61.72-4.72-5.65-9.83-10.27-8.26Z" style="fill: #4605fa;"/>
      <path d="M253.21,36.72c.8,2.49,3.23,4.66,4.62,4.18,1.25-.43.86-2.72,2-3.12.8-.29,2.26.41,5.08,4.31.23-.49.4-.99.48-1.5.72-4.72-5.65-9.83-10.27-8.26-.58.2-1.11.5-1.6.87l-.24.2c-.1.08-.19.17-.28.26-.11.7-.18,1.82.22,3.07Z" style="fill: #fff;"/>
    </g>
  </g>
</svg>