<?xml version="1.0" encoding="UTF-8"?>
<svg id="Calque_2" data-name="Calque 2" xmlns="http://www.w3.org/2000/svg" viewBox="0 0 397.2 432.91">
  <g id="Final">
    <g id="Girafe">
      <path d="M23.91,414.97c26.22,23.34,69.04,24.49,99.77,0l82.01-145.02c2.8,13.76,7.97,23.6,11.79,29.63,4.74,7.47,8.81,13.64,16.15,15.58,4.87,1.29,8.7.7,15.34-.75,5.29-1.16,15.24-3.34,23.26-11.79,4.65-4.9,6.71-9.87,7.69-12.27,8.39-20.72-3.25-44.6-5.51-49.05,7.36-7.82,9.93-14.88,10.85-20.05,1.25-7.01-.77-9.04,1.65-14.12,3.54-7.42,9.47-6.45,13.8-14.98,2.67-5.26.97-6.7,4.06-10.54,3.06-3.79,6.61-4.75,7.95-9.21.73-2.44.07-3.5,1.03-4.32,3.04-2.59,13.17,4.9,13.74,4.06.48-.7-7.27-4.82-9.01-12.84-.32-1.46-.34-2.6-.36-3.92-.08-5.97,1.67-10.77,3.17-13.88,4.41-.16,10.93-.86,18.27-3.55,2.37-.87,11.75-4.47,21.54-13.72,6.12-5.79,11.91-13.32,25.07-46.39,8.51-21.39,12.72-32.16,10.37-35.56-8.02-11.61-49.03-6.65-75.39,15.27-14.94,12.42-28.91,33.38-33.93,30.55-1.16-.65-2.27-2.82-2.72-4.56-.82-3.16.55-5,.75-8.41.24-4.21-1.51-7.06-2.1-8.71-3.73-10.47,20.73-25.4,19.53-37.85-1.38-14.25-36.52-26.77-45.04-17.86-6.84,7.15,1.58,30.08-2.87,45.04-1.66,5.6-4.7,8.63-5.41,9.31-.94.91-3.59,3.4-7.81,4.51-4.85,1.27-11.64.68-15.62-3.6-2.88-3.1-3.36-7.14-3.45-9.91-.71-20.33,17.01-33.28,13.52-43.41C231.66.03,195.75-4.69,187.63,7.21c-4.91,7.21,2.28,17.71,3.76,50.17.16,3.47.33,8.89-2.85,14.12-4.09,6.72-13.45,12.67-21.03,10.81-11.61-2.84-7.6-21.16-24.63-39.05-9.52-9.99-20.3-14.29-29.35-17.89-13.62-5.42-24.28-9.67-31.04-4.94-8.25,5.78-5.91,21.64-3.21,39.94,2.94,19.96,5.13,34.76,17.18,48.99,12.32,14.54,28.03,20.3,36.95,22.68,1.87,3.05,4.43,6.66,7.9,10.35,2.93,3.11,5.84,5.56,8.39,7.45-38.6,24.87-67.17,93.03-125.8,151.86-33.03,33.14-30.72,85.94,0,113.29Z" style="fill: #f9e7fe;"/>
      <path d="M321.32,141.49c4.41-.16,10.93-.86,18.27-3.55,2.37-.87,11.75-4.47,21.54-13.72,6.12-5.79,11.91-13.32,25.07-46.39,8.51-21.39,12.72-32.16,10.37-35.56-8.02-11.61-49.03-6.65-75.39,15.27-14.94,12.42-28.91,33.38-33.93,30.55-.25,19.64,5.08,27.96,10.53,31.78,6.04,4.23,14.48,4.53,19.98,12.62,2.25,3.31,3.15,6.67,3.57,9.02Z" style="fill: #f9e7fe;"/>
      <path d="M287.21,87.93c-.95-.99-2.18-2.58-2.7-4.77-.74-3.12.56-5.07.75-8.41.24-4.21-1.51-7.06-2.1-8.71-3.73-10.47,20.73-25.4,19.53-37.85-1.38-14.25-36.52-26.77-45.04-17.86-6.84,7.15,1.58,30.08-2.87,45.04-1.66,5.6-4.7,8.63-5.41,9.31-.94.91-3.59,3.4-7.81,4.51-4.85,1.27-11.64.68-15.62-3.6-2.88-3.1-3.36-7.14-3.45-9.91-.71-20.33,17.01-33.28,13.52-43.41-4.34-12.59-40.25-17.31-48.37-5.41-4.91,7.21,2.28,17.71,3.76,50.17.16,3.47.33,8.89-2.85,14.12-4.09,6.72-13.46,12.78-21.04,10.93l-34.6,49.61c1.82,2.97,4.3,6.47,7.65,10.06,3.03,3.26,6.04,5.79,8.65,7.73-.51-3.39-.9-8.9.71-15.32,1.03-4.1,2.25-8.93,6.25-13.06,6.4-6.6,17.22-8.65,25.44-5.27,5.57,2.29,8.71,6.57,10.16,8.67,10.68,15.48,14.62,35.38,17.33,51.56,5.68,34.02,8.41,51.26,2.7,62.72-.83,1.67-3.87,7.32-5.41,15.53-1.19,6.34-1.01,11.74-.69,15.28,2.8,13.82,8.01,23.67,11.79,29.63,4.74,7.47,8.81,13.64,16.15,15.58,4.87,1.29,8.7.7,15.34-.75,5.29-1.16,15.24-3.34,23.26-11.79,4.65-4.9,6.71-9.87,7.69-12.27,8.39-20.72-3.25-44.6-5.51-49.05-.31-4.07-.91-10.49-2.13-18.33-1.58-10.14-3.26-16.56-3.94-19.75-4.07-18.92-1.49-55.85,18.37-71.19,4.06-3.13,10.46-6.62,10.54-12.17.06-4.47-4.04-6.51-7.21-12.58-2.4-4.59-3.86-10.72-2.83-19.01Z" style="fill: #a63be8;"/>
      <path d="M191.39,57.38c-1.47-32.46-8.67-42.96-3.76-50.17,8.11-11.9,44.02-7.18,48.37,5.41,3.49,10.13-14.23,23.07-13.52,43.41-4.77-1.26-12.1-2.5-20.8-1.24-3.98.57-7.44,1.56-10.29,2.6Z"/>
      <path d="M254.78,55.73c4.45-14.96-3.97-37.89,2.87-45.04,8.52-8.91,43.66,3.6,45.04,17.86,1.2,12.45-23.25,27.38-19.53,37.85-2.81-2.22-6.94-5-12.39-7.18-6.39-2.56-12.11-3.29-16-3.49Z"/>
      <path d="M133.41,132.03c-8.92-2.38-24.63-8.14-36.95-22.68-12.05-14.22-14.24-29.02-17.18-48.99-2.7-18.3-5.04-34.15,3.21-39.94,6.75-4.73,17.42-.49,31.04,4.94,9.05,3.6,19.83,7.9,29.35,17.89,17.04,17.89,13.02,36.22,24.63,39.05-.38,5.65-2.54,28.5-20.77,42.5-4.54,3.49-9.18,5.74-13.33,7.22Z" style="fill: #f9e7fe;"/>
      <path d="M274.41,241.3c-2.62-4-6.62-5.7-9.65-6.99-3.6-1.53-6.73-2.03-10.81-2.44-12.02-1.2-18.03-1.8-22.64-.07-1.48.56-13.58,5.1-15.1,16.03-1.14,8.24,4.23,16.51,10.69,19.64,6.58,3.19,9.42-1.29,24.91,0,8.05.67,9.82,2.09,14.64.75,6.35-1.76,13-6.93,13.07-12.28,0-.62-.55-2.29-1.67-5.61-1.73-5.16-2.6-7.74-3.44-9.03Z" style="fill: none; stroke: #cb6be6; stroke-miterlimit: 10; stroke-width: .25px;"/>
      <path d="M269.8,241.79c-.77.12-.48,1.99-1.75,5.18-1.8,4.53-4.02,4.86-5.57,8.22-2.53,5.48-.19,12.26.79,12.28.57.01.36-2.29,1.92-5.41,2.79-5.6,7.06-5.42,8.45-9.46,1.66-4.82-2.37-11.05-3.83-10.81Z"/>
      <path d="M234.87,262.95c2.06-.48,3.6-5.67,1.9-9.2-1.52-3.15-4.44-2.49-6.85-6.07-2.51-3.73-1.67-7.89-2.14-7.89-.5,0-1.23,4.65-.68,9.8.58,5.44,2.25,8.19,2.7,8.9.71,1.12,3.12,4.91,5.07,4.46Z"/>
      <path d="M142.46,52.34c5.64,5.52,2.6,11.88,4.17,29.4,1.91,21.33,8.38,33.73,3.89,36.43-2.44,1.46-6.75-.73-7.83-1.29-4.12-2.1-4.12-4.79-8-7.84-4.11-3.23-5.85-1.58-11.49-4.55-6.17-3.25-11.45-9.11-10.36-11.27,1.22-2.41,9.97.69,10.7-1.13,1.09-2.7-17.78-10.84-16.56-16,.87-3.66,10.9-1.72,13.18-6.42,3.77-7.76-18.37-23.82-15.66-27.83.73-1.08,2.93-.77,20.28,4.17,14.89,4.24,16.18,4.84,17.69,6.31Z"/>
      <path d="M360.93,57.38c1.45,4.66-25.06,15.35-22.98,22.26,1.07,3.56,9.07,3.94,9.01,6.76-.06,2.83-8.17,4.05-8.11,7.06.04,2.13,4.12,2.93,3.91,4.51-.21,1.49-4,1.7-10.51,3.6-3.52,1.03-8.69,2.81-8.56,3.45.23,1.13,16.37-3,17.57,0,1.07,2.66-8.89,12.83-19.08,13.67-1.9.16-6.09.17-10.21,2.85-1.75,1.13-2.96,2.41-3.71,3.3l-10.48-4.99c1.83-7.39,5.07-18.38,10.89-31.02,6.23-13.54,9.58-20.59,17.12-26.17,14.14-10.45,33.98-9.05,35.15-5.29Z"/>
      <g id="Oeil">
        <path d="M294.28,184.3c-2.86-3.78-6.43-3.16-7.05-5.63-.5-2,1.6-4.09,5.81-8.26,3.98-3.94,6.92-6.78,11.38-7.4,1.38-.19,1.54.02,4.17,0,4.57-.04,8.24-.71,10.66-1.28h.02c2.56,6.43,8.68,9.79,8.25,10.42-.58.84-10.71-6.65-13.74-4.06-.96.82-.3,1.88-1.03,4.32-1.34,4.46-4.9,5.41-7.95,9.21-1.79,2.23-1.98,3.65-2.33,5.47h0c-2.43,3.66-3.83,4.2-4.68,4-1.63-.39-1.03-3.53-3.49-6.78Z"/>
        <path d="M294.88,173.1c1.24-4.77,6.02-8.19,10.93-8.22,4.23-.03,7.15,2.46,7.96,3.2-.96.82-.3,1.88-1.03,4.32-1.24,4.12-4.36,5.27-7.24,8.4h-.03c-.43.61-3.07,4.28-5.97,3.91-3.57-.46-5.87-6.8-4.62-11.6Z" style="fill: #4605fa;"/>
      </g>
      <path d="M117.44,181.42c9.05-11.43,18-21.11,27.47-28.22.34.34.68.68,1.01,1.05-2.2,2.54-4.83,6.43-4.17,10.63.49,3.11,2.52,4.69,3.6,6.4,2.28,3.58,2.36,10.78-8.34,26.81-.11.44-2.33,9.31-6.53,9.69-3.93.35-8.58-6.85-8.56-13.29.02-7.02,5.58-11.28,3.94-13.47-.67-.89-2.58-1.5-8.43.4Z" style="fill: #a63be8;"/>
      <g id="Oeil-2" data-name="Oeil">
        <path d="M191.16,169.82c-.76,2.48-6.31.51-14.49,4.88-5.02,2.68-6.04,5.08-9.39,4.96-5.07-.19-8.59-5.93-8.86-6.38-3.87-6.49-.13-11.82-3.6-15.92-1.46-1.72-4.46-3.55-11.44-3l6.33-4.52c1.43-.68,3.72-1.57,6.61-1.79,4.7-.36,8.99,1.19,20.95,9.46,9.72,6.72,14.56,10.13,13.89,12.32Z"/>
        <path d="M177.2,159.38c1.45,2.53,2.05,6.55,0,9.69-2.34,3.59-6.95,4.2-9.89,3.76-5.78-.87-8.47-6.34-9.26-7.94-.92-1.88-2.94-5.98-1.28-8.58,2.87-4.48,16.38-3.99,20.43,3.08Z" style="fill: #4605fa;"/>
      </g>
      <path d="M107.73,371.5c-4.63-10.14-14.85-6.22-24.78-18.93-11.17-14.29-9.25-32.74-13.06-32.68-.62.01-1.23.51-5.85,10.26-4.06,8.55-6.09,13.45-7.9,13.19-1.43-.21-1.16-3.43-3.15-4.06-2.52-.8-4.49,3.85-8.56,4.28-4.25.45-6.23-4.17-8.11-3.6-4.23,1.27-3.69,27.51,8.11,53.85,5.82,12.99,12.81,28.58,25.23,29.97,7.96.89,14.46-4.48,19.71-8.8,12.1-9.98,24.58-29.83,18.36-43.47Z" style="fill: #a63be8;"/>
      <path d="M151.31,366.12c-3.16.67-8.19,2.12-13.17,5.71-3.93,2.84-8.69,7.63-18.07,30.72-1.94,4.76-4.56,11.52-7.38,19.82l11-7.41,27.63-48.85Z" style="fill: #a63be8;"/>
      <path d="M38.45,286.27c-3.13,5.63-4.86,10.48-5.86,13.97-1.19,4.14-1.46,6.64-3.6,8.33-3.08,2.42-7.88,1.46-11.43.27l20.9-22.57Z" style="fill: #a63be8;"/>
      <path d="M75.86,239.14c-.11,4.52.39,8.22,2.25,8.9,2.17.8,4.36-3.22,5.86-2.7,3.89,1.33-1,31.59-14.42,54.91-7.65,13.3-13.67,16.69-18.17,17.49-1.65.3-3.5.32-6.16,1.46-7.5,3.24-9.7,10.41-11.12,9.95-1.28-.42-1.52-7.02,2.22-20.3,3.21-11.43,9.35-27.73,22.13-46.49l17.41-23.21Z" style="fill: #a63be8;"/>
      <path d="M158.08,324.94c.81,6.08-8.8,14.2-5.41,20.95.5.99,1.21,1.81,1.35,3.38.42,4.6-4.57,9.91-7.66,9.24-2.06-.45-1.73-3.22-3.83-4.96-5.26-4.35-14.84,6.83-23.21,4.96-14.75-3.3-15.39-44.82-31.09-47.54-1.95-.34-5.31-.28-6.08-2.13-1.1-2.63,4.32-5.86,7.66-11.29,4.07-6.61,2.32-12.05,2.1-24.77-.05-2.95-.51-30.04,4.21-31,4.03-.82,11.55,17.5,15.32,28.9,7.98,24.12,3.53,30.25,11.04,38.16,12.11,12.76,34.44,7.47,35.6,16.1Z" style="fill: #a63be8;"/>
      <path d="M165.29,308.84c-4.29,3.43-16.15-4.14-22.98-11.29-3.46-3.62-6.43-6.73-6.08-10.65.57-6.44,9.68-10.2,8.88-11.79-.67-1.32-6.29,2.63-10.69.71-8.88-3.88-5.86-28.73-10.59-29.29-.97-.12-1.44.89-2.18.57-2.84-1.2-1.57-18.14,4.66-20.17,3.94-1.29,8.58,3.83,17.27,13.41,6.03,6.64,9.05,9.97,10.55,15.16,2.5,8.61-2.25,10.24-.71,18.86,2.17,12.12,12.53,14.45,13.37,27.49.17,2.6.31,5.54-1.5,6.99Z" style="fill: #a63be8;"/>
      <path d="M188.73,265.23c-2.3-.5-3.25,2.94-6.61,3.54-6.47,1.15-11.1-10.15-15.02-8.95-3.26,1-4.4,10.16-1.8,17.42.69,1.94,4.42,12.37,13.07,12.77,7.4.34,13.26-6.89,14.27-13.26.77-4.88-1.05-10.91-3.91-11.53Z" style="fill: #a63be8;"/>
      <path d="M116.03,183.2c-1.26,4.85-7.11,26.82-14.49,38.76-1.92,3.11-4.27,6.07-7.97,6.92-3.86.89-7.38-.94-9.02-1.95l31.47-43.73Z" style="fill: #a63be8;"/>
      <path d="M118.36,213.71c.83.37-.34,2.75-.11,8.56.19,4.98,1.17,6.16.11,8.11-.87,1.61-2.78,2.44-6.57,4.06-4.31,1.83-6.96,2.96-7.81,2.03-.5-.55-.48-1.93,4.88-10.44,4.35-6.91,8.14-12.92,9.5-12.32Z" style="fill: #a63be8;"/>
      <path d="M156.77,174.21c-4.07,4.75-9.07,11.16-14.08,19.23-7.6,12.23-7.63,16.01-7.36,18.17,1.17,9.44,11.5,17.1,15.62,15.32,3.19-1.38,2.4-8.31,5.86-9.16,1.67-.41,3.41.83,4.51,1.8-1.6-5.63-3.07-12.24-3.98-19.71-1.2-9.81-1.11-18.51-.56-25.65Z" style="fill: #a63be8;"/>
      <path d="M173.6,217.26c6.47,1.95,7.86,18.18,4.21,20.05-2.44,1.25-7.39-3.77-9.54-6.61-1.92-2.54-4.38-5.79-3.23-9.01,1.15-3.22,5.54-5.34,8.56-4.43Z" style="fill: #a63be8;"/>
      <path d="M158.65,179.19c-1,.06-1.69,8.32-1.13,16.15.56,7.86,2.61,18.37,4.73,18.34,1.19-.02,2.26-3.35,2.48-5.88.34-3.79-1.3-4.81-2.56-10.32-1.01-4.42-.23-4.96-1.43-11.15-.58-3-1.39-7.17-2.1-7.13Z" style="fill: #a63be8;"/>
      <path d="M162.93,184.97c1.18-.27,4.32,5.99,5.11,12.32.33,2.66-.04,2.99.38,5.86.95,6.52,3.7,10.32,3.38,10.53-.16.11-4.29-3.97-7.06-11.13-3.16-8.2-3.15-17.26-1.81-17.57Z" style="fill: #a63be8;"/>
      <path d="M185.8,223.12c1.46.65.82,3.01,2.07,6.76,1.65,4.95,4.85,7.09,4.36,7.63-.52.57-4.26-1.58-7.1-4.7-1.64-1.8-4.59-5.05-3.49-7.57.69-1.57,2.87-2.69,4.17-2.12Z" style="fill: #a63be8;"/>
      <path d="M149.71,149.82c-2.55-1.89-5.46-4.34-8.39-7.45-3.47-3.68-6.04-7.29-7.9-10.35-8.92-2.38-24.63-8.14-36.95-22.68-12.05-14.22-14.24-29.02-17.18-48.99-2.7-18.3-5.04-34.15,3.21-39.94,6.75-4.73,17.42-.49,31.04,4.94,9.05,3.6,19.83,7.9,29.35,17.89,17.04,17.89,13.02,36.22,24.63,39.05,7.58,1.85,16.94-4.09,21.03-10.81,3.18-5.23,3.01-10.65,2.85-14.12-1.47-32.46-8.67-42.96-3.76-50.17,8.11-11.9,44.02-7.18,48.37,5.41,3.49,10.13-14.23,23.07-13.52,43.41.1,2.77.57,6.81,3.45,9.91,3.98,4.29,10.77,4.88,15.62,3.6,4.22-1.11,6.87-3.6,7.81-4.51.71-.68,3.74-3.72,5.41-9.31,4.45-14.96-3.97-37.89,2.87-45.04,8.52-8.91,43.66,3.6,45.04,17.86,1.2,12.45-23.25,27.38-19.53,37.85.59,1.66,2.35,4.5,2.1,8.71-.2,3.42-1.57,5.25-.75,8.41.45,1.74,1.56,3.91,2.72,4.56,5.02,2.83,18.99-18.13,33.93-30.55,26.36-21.91,67.37-26.88,75.39-15.27,2.35,3.4-1.86,14.17-10.37,35.56-13.16,33.07-18.94,40.61-25.07,46.39-9.78,9.25-19.17,12.86-21.54,13.72-7.34,2.68-13.86,3.39-18.27,3.55-1.5,3.1-3.25,7.9-3.17,13.88.02,1.32.04,2.46.36,3.92,1.74,8.03,9.49,12.14,9.01,12.84-.58.84-10.71-6.65-13.74-4.06-.96.82-.3,1.88-1.03,4.32-1.34,4.46-4.9,5.41-7.95,9.21-3.1,3.84-1.39,5.29-4.06,10.54-4.33,8.53-10.26,7.56-13.8,14.98-2.43,5.08-.4,7.11-1.65,14.12-.93,5.17-3.49,12.23-10.85,20.05,2.25,4.45,13.9,28.33,5.51,49.05-.97,2.4-3.04,7.37-7.69,12.27-8.02,8.46-17.97,10.63-23.26,11.79-6.64,1.45-10.47,2.04-15.34.75-7.34-1.95-11.4-8.11-16.15-15.58-3.82-6.02-8.99-15.87-11.79-29.63-6.39-2.54-16.59-7.57-25.91-17.38-12.43-13.09-16.58-27.63-18.73-35.51-1.73-6.33-5.59-20.46-4.93-36.55.16-3.89.77-12.35-2.7-22.4-1.24-3.59-2.67-6.41-3.72-8.28Z" style="fill: none;"/>
    </g>
  </g>
</svg>