<?xml version="1.0" encoding="UTF-8"?>
<svg id="Calque_2" data-name="Calque 2" xmlns="http://www.w3.org/2000/svg" viewBox="0 0 239.91 506.88">
  <g id="Final">
    <g id="Moai">
      <path d="M239.91,501.36c-12.38,3.52-30.77,7.11-52.43,4.77-30.99-3.36-38.84-15.63-82.38-35.4-58.66-26.63-81.63-21.25-96.34-46.64-1.3-2.23-12.95-23-7.15-45.28,4.23-16.24,18.37-35.71,34.72-49.02,7.78-6.33,17.03-12.07,18.04-22.13.56-5.52-1.98-6.3-3.74-15.66-2.26-11.93.72-16.72.77-31.83.02-5.36-.33-13.14-2.13-22.64-5,.27-13.58-.07-18.38-5.79-2.11-2.52-2.75-5.2-2.99-6.22-7.94-35.05-9.01-70.56-9.01-70.56-1.04-34.63-9-95.4-6.53-104.64.12-.44.74-2.56.83-5.47.14-4.44-1.11-6-1.36-8.85-.63-7.01,5.23-16.04,11.72-17.64,1.97-.48,3.78-.23,5.3-1.77,1.99-2.01,1.44-5,1.65-6.32,1.13-6.99,31.76-15.16,64.73-6.62,8.42,2.18,32.39,9.44,52.89,31.04,6.94,7.31,11.8,16.11,19.28,28.53,8.32,13.82,9.35,17.95,9.76,19.83,2.92,13.51-5.84,23.6-5.62,34.68.16,7.94,4.74,5.28,15.57,26.94,7.05,14.09,5.57,16.15,11.62,24.51,7.02,9.72,11.48,10.35,13.27,17.62,1.76,7.17-2.14,8.34-2.5,20.77-.33,11.23,2.85,10.58,2.43,22.72-.26,7.54-1.61,11.15.77,16.47,1.39,3.12,3.03,4.52,3.73,8.13.97,4.99-.83,9.13-1.36,10.55-3.36,8.97,1.67,22.09,12.52,64.6.77,3.02,2.58,8.48,0,13.28-2.34,4.35-7.64,7.07-12.06,7.97-5.09,1.03-6.43-.94-9.31.63-4.68,2.54-5.7,10.17-5.16,15.24.66,6.24,3.9,10.61,4.6,11.57,4.81,6.66,10.2,27.27,20.99,68.5,3.75,14.35,8.35,32.65,13.28,54.13Z" style="fill: #f9e7fe;"/>
      <path d="M51.21,88.22c-2.63-10.92,41.96-49.24,86.47-37.62,15.54,4.06,27.12,13.19,35.39,22.62,3.19,6.09,3.79,8.52,4.07,9.84,2.92,13.51-5.84,23.6-5.62,34.68.12,5.87,2.66,5.96,8.37,14.38-6.87.42-15.75-.27-22.01-6.03-3.62-3.34-4.12-6.3-7.9-15.29-7.36-17.54-11.04-26.31-17.62-28.34-6.88-2.13-15.57,2.5-20.04,7.91-6.44,7.79-2.75,15.52-7.79,18.38-5,2.85-11.23-3.28-26.44-10.15-19.19-8.67-25.92-6.32-26.89-10.38Z" style="fill: #cb6be6;"/>
      <path d="M208.19,249.46c-3.01-2.51-10.92-8.39-22.72-9.7-13.69-1.53-23.87,4.07-27.06,6,7.84,1.67,16.97,3.08,27.19,3.71,8.26.51,15.84.41,22.6,0Z" style="fill: #cb6be6;"/>
      <path d="M36.33,329.79c7.78-6.33,17.03-12.07,18.04-22.13.51-5.1-1.61-6.17-3.33-13.68,17.71,17.05,56.23,48.89,112.51,56.83,15.75,2.22,30.15,2.19,42.65,1.1-4.68,2.54-5.7,10.17-5.16,15.24.66,6.24,3.9,10.61,4.6,11.57,4.81,6.66,10.2,27.27,20.99,68.5,3.75,14.35,8.35,32.65,13.28,54.13-12.38,3.52-30.77,7.11-52.43,4.77-30.99-3.36-38.84-15.63-82.38-35.4-58.66-26.63-81.63-21.25-96.34-46.64-1.3-2.23-12.95-23-7.15-45.28,4.23-16.24,18.37-35.71,34.72-49.02Z" style="fill: none;"/>
      <path d="M211.56,195.16h0c-2.02,4.35-6.72,12.94-16.3,19.83-4,2.87-13.31,9.38-26.55,9.19-4.05-.06-18.23-.88-27.23-11.4-2.23-2.61-3.56-5.13-4.44-7.1,12.51-13.74,23.23-17.28,30.92-17.83,6.78-.48,11.65,1.33,24.17,1.04,8.41-.19,15.29-1.22,19.87-2.08.88,3.56.35,5.64-.44,8.35Z" style="fill: #cb6be6;"/>
      <path d="M72.97,312.61c20.93,15.62,51.47,32.69,90.59,38.21,15.75,2.22,30.15,2.19,42.65,1.1-4.68,2.54-5.7,10.17-5.16,15.24.66,6.24,3.9,10.61,4.6,11.57,4.81,6.66,10.2,27.27,20.99,68.5,3.75,14.35,8.35,32.65,13.28,54.13-5.36-3.29-13.48-8.63-22.53-16.19-23.62-19.73-31.59-36.14-53.18-64.04-14.2-18.35-12.66-13.71-41.8-47.79-21.79-25.49-38.66-46.8-49.43-60.73Z" style="fill: #cb6be6;"/>
    </g>
  </g>
</svg>